<svg width="509" height="506" viewBox="0 0 509 506" fill="none" xmlns="http://www.w3.org/2000/svg">
<path fill-rule="evenodd" clip-rule="evenodd" d="M313.556 4.17704C319.003 -1.31075 327.867 -1.34396 333.355 4.10282L504.224 173.696C509.712 179.143 509.745 188.007 504.298 193.495L403.119 295.435C402.751 295.806 402.367 296.152 401.97 296.473L212.171 125.179L211.972 125.378L202 115.411L211.147 106.26L211.717 106.829C211.927 106.586 212.147 106.348 212.377 106.117L313.556 4.17704Z" fill="#F4F0D3"/>
<path fill-rule="evenodd" clip-rule="evenodd" d="M311.942 5.55196C317.804 -0.387611 327.372 -0.449805 333.312 5.41305L503.11 173.018C509.049 178.881 509.111 188.449 503.249 194.388C502.755 194.888 502.235 195.347 501.693 195.764L492.273 205.07L492.344 205.137L491.656 205.863L491.561 205.773L491.441 205.892L487.761 202.168L487.627 202.04L491.5 206L480.899 195.658L472.158 187.365L472.158 187.364C466.357 181.936 461.295 179.733 455.64 179.597C449.966 179.461 443.641 181.401 435.288 184.427L409.372 213.334L409.04 213.704L408.792 213.484C406.165 215.675 402.742 217 399 217C390.716 217 384 210.508 384 202.5C384 199.864 384.728 197.392 386 195.262L374.86 206.847L374.481 207.241L374.145 206.855L373.5 207.5L373.397 207.375C370.879 209.029 367.811 210 364.5 210C355.94 210 349 203.508 349 195.5C349 191.004 351.187 186.986 354.621 184.326L354.308 183.965L354.657 183.636L379.125 160.607L378.818 160.285C376.639 161.379 374.147 162 371.5 162C362.94 162 356 155.508 356 147.5C356 144.487 356.982 141.689 358.663 139.37L358.651 139.358L358.306 139.021L358.63 138.664L373.112 122.683C377.348 116.924 379.497 112.363 379.841 107.627C380.185 102.899 378.734 97.9157 375.587 91.2951L300.65 17.8571L301.123 17.374L301 17.257L310.517 7.21829C310.945 6.6376 311.42 6.08041 311.942 5.55196ZM377.503 91.5H376.788C376.678 91.2636 376.566 91.0253 376.451 90.785L376.413 90.705L376.35 90.643L315.314 30.8275L333.611 48.1749L377.503 91.5Z" fill="#ECAD1D"/>
<path fill-rule="evenodd" clip-rule="evenodd" d="M327.329 44.2041L317.032 33.9451L249.111 102.113L249.12 102.123C247.808 103.383 247 105.104 247 107C247 110.866 250.358 114 254.5 114C256.356 114 258.054 113.371 259.364 112.329L259.407 112.372L327.329 44.2041Z" fill="#E8E4C8"/>
<path fill-rule="evenodd" clip-rule="evenodd" d="M352 67.5083L341.746 57L274.102 126.824L274.112 126.834C272.805 128.125 272 129.887 272 131.83C272 135.79 275.344 139 279.469 139C281.318 139 283.009 138.356 284.313 137.288L284.356 137.332L352 67.5083Z" fill="#E8E4C8"/>
<path fill-rule="evenodd" clip-rule="evenodd" d="M376.263 92.252L365.975 82L298.109 150.121L298.119 150.131C296.807 151.39 296 153.11 296 155.005C296 158.868 299.355 162 303.494 162C305.348 162 307.045 161.371 308.354 160.33L308.397 160.373L376.263 92.252Z" fill="#E8E4C8"/>
<path fill-rule="evenodd" clip-rule="evenodd" d="M322 173L365 131.5C364.496 132.09 364.002 132.661 363.521 133.217C356.954 140.814 352.847 145.566 359 156.5L332 183L331.95 182.95C330.683 184.217 328.933 185 327 185C323.134 185 320 181.866 320 178C320 176.067 320.784 174.317 322.05 173.05L322 173Z" fill="#E8E4C8"/>
<path fill-rule="evenodd" clip-rule="evenodd" d="M370.321 222.537L384 206.5C387.122 212.641 389.263 215.269 394.5 217L381.141 229.882C379.952 231.74 377.648 233 375 233C371.134 233 368 230.314 368 227C368 225.228 368.896 223.635 370.321 222.537Z" fill="#E8E4C8"/>
<path fill-rule="evenodd" clip-rule="evenodd" d="M392.5 246.5L459.5 180C459.605 180.026 459.709 180.052 459.812 180.078C463.661 181.042 465.914 181.606 472 187.5L403 256L402.947 255.952C401.681 257.218 399.932 258 398 258C394.134 258 391 254.866 391 251C391 249.32 391.592 247.778 392.579 246.571L392.5 246.5Z" fill="#E8E4C8"/>
<path fill-rule="evenodd" clip-rule="evenodd" d="M395.929 289.794L202.672 116.84L202.5 116.5L202.402 116.598L201.953 116.197L194.708 124.292L133.5 185.5L328 365L329.835 363.558L329 364.5L330.96 362.675L335 359.5L334.662 359.226L402 296.5L395.852 289.88L395.929 289.794Z" fill="#C8CACB"/>
<circle r="16" transform="matrix(-1 0 0 1 196 178)" fill="#B4B5B6"/>
<circle cx="232" cy="214" r="16" transform="rotate(-180 232 214)" fill="#B4B5B6"/>
<path d="M304 207.5L403.5 294.5L328 365.5L231.5 276.5L304 207.5Z" fill="#D3D5D6"/>
<circle r="16.5" transform="matrix(-1 0 0 1 291.5 272.5)" fill="#BDBFC0"/>
<circle cx="328" cy="309" r="16" transform="rotate(-180 328 309)" fill="#BDBFC0"/>
<path fill-rule="evenodd" clip-rule="evenodd" d="M133.042 184.537L231.782 275.599L223.572 284.501L15.6653 494.319L7.91158 487.169L12 490.5C5.12165 482.005 2.34998 476.668 1 468.632V465H0.5H0.133331L0 463V456.84C0.468395 446.169 3.15826 434.217 11.0493 425.972L36.9879 403.399C39.6305 401.972 41.9012 400.404 43.7343 398.724L81.221 377.117C112.098 364.393 134 332.425 134 295C134 268.706 123.188 245.105 106.048 228.98L106.5 229C102.113 223.812 101.933 221.132 103.462 216.611L133.042 184.537ZM0.0421829 465C0.0267525 464.705 0.012661 464.407 0 464.107V465H0.0421829Z"/>
<path fill-rule="evenodd" clip-rule="evenodd" d="M15.5952 493.844L19.4126 497.981L16.0803 493.894C24.5781 500.769 29.916 503.539 37.9522 504.886L41.5844 504.885L41.5845 505.385L41.5847 505.751L43.5846 505.884L49.7445 505.882C60.4156 505.409 72.3666 502.715 80.6085 494.821L103.171 468.874C104.598 466.231 106.165 463.96 107.844 462.126L129.438 424.631C142.15 393.75 174.11 371.836 211.534 371.822C237.828 371.813 261.433 382.615 277.565 399.749L277.544 399.298C282.733 403.682 285.414 403.861 289.934 402.331L321.997 372.739L321.404 372.096L328 365.5L246.055 290.455L232.371 275.629L15.5952 493.844ZM231.772 274.98L230.702 274.216L230.899 274.034L231.772 274.98ZM42.4776 505.884C42.1776 505.872 41.8799 505.858 41.5847 505.842L41.5847 505.885L42.4776 505.884Z" filter="brightness(0.85)"/>
</svg>
