<svg width="512" height="512" viewBox="0 0 512 512" fill="none" xmlns="http://www.w3.org/2000/svg">
<path fill-rule="evenodd" clip-rule="evenodd" d="M315.375 7.21506C320.822 1.72727 329.686 1.69406 335.174 7.14087L506.043 176.734C511.531 182.181 511.564 191.045 506.117 196.533L404.939 298.473C404.57 298.844 404.187 299.19 403.789 299.511L213.99 128.217L213.792 128.416L203.819 118.449L212.966 109.298L213.536 109.867C213.746 109.624 213.967 109.386 214.197 109.155L315.375 7.21506Z" fill="#F4F0D3"/>
<path class="brush-paint" fill-rule="evenodd" clip-rule="evenodd" d="M313.761 8.58996C319.624 2.65042 329.191 2.58823 335.131 8.45107L504.929 176.056C510.868 181.919 510.931 191.487 505.068 197.426C504.574 197.926 504.054 198.385 503.513 198.801L494.092 208.108L494.163 208.175L493.475 208.901L493.381 208.811L493.26 208.93L489.58 205.205L489.445 205.077L493.319 209.038L482.715 198.693L473.978 190.403L473.977 190.402C468.176 184.974 463.114 182.771 457.459 182.635C451.785 182.499 445.461 184.439 437.108 187.465L411.191 216.372L410.86 216.742L410.612 216.522C407.984 218.713 404.562 220.038 400.819 220.038C392.535 220.038 385.819 213.546 385.819 205.538C385.819 202.902 386.547 200.43 387.819 198.3L376.68 209.885L376.3 210.279L375.965 209.892L375.319 210.538L375.216 210.413C372.698 212.067 369.63 213.038 366.319 213.038C357.759 213.038 350.819 206.546 350.819 198.538C350.819 194.042 353.007 190.024 356.44 187.364L356.127 187.003L356.477 186.674L380.945 163.645L380.638 163.323C378.458 164.417 375.966 165.038 373.319 165.038C364.759 165.038 357.819 158.546 357.819 150.538C357.819 147.525 358.801 144.727 360.483 142.408L360.47 142.396L360.125 142.059L360.449 141.702L374.932 125.721C379.167 119.962 381.316 115.401 381.66 110.665C382.004 105.937 380.553 100.954 377.406 94.333L302.469 20.8951L302.943 20.412L302.819 20.295L312.337 10.2562C312.764 9.67554 313.239 9.11839 313.761 8.58996ZM379.323 94.538H378.608C378.497 94.3016 378.385 94.0632 378.271 93.8229L378.232 93.7429L378.169 93.6809L317.133 33.8654L335.43 51.2124L379.323 94.538Z" fill="#ECAD1D"/>
<path fill-rule="evenodd" clip-rule="evenodd" d="M329.148 47.2421L318.852 36.9831L250.93 105.151L250.94 105.161C249.627 106.421 248.819 108.142 248.819 110.038C248.819 113.904 252.177 117.038 256.319 117.038C258.175 117.038 259.874 116.409 261.183 115.367L261.226 115.41L329.148 47.2421Z" fill="#E8E4C8"/>
<path fill-rule="evenodd" clip-rule="evenodd" d="M353.819 70.5463L343.565 60.038L275.922 129.862L275.931 129.872C274.624 131.163 273.819 132.925 273.819 134.868C273.819 138.828 277.163 142.038 281.289 142.038C283.137 142.038 284.828 141.394 286.132 140.326L286.176 140.37L353.819 70.5463Z" fill="#E8E4C8"/>
<path fill-rule="evenodd" clip-rule="evenodd" d="M378.083 95.29L367.795 85.038L299.928 153.159L299.938 153.169C298.627 154.428 297.819 156.148 297.819 158.043C297.819 161.906 301.174 165.038 305.313 165.038C307.168 165.038 308.865 164.409 310.173 163.368L310.216 163.411L378.083 95.29Z" fill="#E8E4C8"/>
<path fill-rule="evenodd" clip-rule="evenodd" d="M323.819 176.038L366.819 134.538C366.315 135.128 365.821 135.699 365.341 136.255C358.774 143.852 354.666 148.604 360.819 159.538L333.819 186.038L333.769 185.988C332.502 187.255 330.752 188.038 328.819 188.038C324.953 188.038 321.819 184.904 321.819 181.038C321.819 179.105 322.603 177.355 323.87 176.088L323.819 176.038Z" fill="#E8E4C8"/>
<path fill-rule="evenodd" clip-rule="evenodd" d="M372.141 225.575L385.819 209.538C388.941 215.679 391.082 218.307 396.319 220.038L382.961 232.92C381.771 234.778 379.467 236.038 376.819 236.038C372.953 236.038 369.819 233.352 369.819 230.038C369.819 228.266 370.716 226.673 372.141 225.575Z" fill="#E8E4C8"/>
<path fill-rule="evenodd" clip-rule="evenodd" d="M394.319 249.538L461.319 183.038C461.424 183.064 461.528 183.09 461.631 183.116C465.481 184.08 467.733 184.644 473.819 190.538L404.819 259.038L404.767 258.99C403.5 260.256 401.751 261.038 399.819 261.038C395.953 261.038 392.819 257.904 392.819 254.038C392.819 252.358 393.411 250.816 394.398 249.609L394.319 249.538Z" fill="#E8E4C8"/>
<path fill-rule="evenodd" clip-rule="evenodd" d="M397.748 292.832L204.491 119.878L204.319 119.538L204.221 119.636L203.772 119.235L196.527 127.33L135.319 188.538L329.819 368.038L331.654 366.596L330.819 367.538L332.779 365.713L336.819 362.538L336.481 362.264L403.819 299.538L397.672 292.918L397.748 292.832Z" fill="#C8CACB"/>
<circle r="16" transform="matrix(-1 0 0 1 197.819 181.038)" fill="#B4B5B6"/>
<circle cx="233.819" cy="217.038" r="16" transform="rotate(-180 233.819 217.038)" fill="#B4B5B6"/>
<path d="M305.819 210.538L405.319 297.538L329.819 368.538L233.319 279.538L305.819 210.538Z" fill="#D3D5D6"/>
<circle r="16.5" transform="matrix(-1 0 0 1 293.319 275.538)" fill="#BDBFC0"/>
<circle cx="329.819" cy="312.038" r="16" transform="rotate(-180 329.819 312.038)" fill="#BDBFC0"/>
<path fill-rule="evenodd" clip-rule="evenodd" d="M134.861 187.575L233.601 278.637L225.391 287.539L17.4846 497.357L9.73083 490.207L13.8193 493.538C6.94093 485.043 4.16925 479.706 2.81927 471.67V468.038H2.31927H1.95261L1.81927 466.038V459.878C2.28767 449.207 4.97752 437.255 12.8685 429.01L38.8072 406.437C41.4498 405.01 43.7204 403.442 45.5536 401.762L83.0402 380.155C113.918 367.431 135.819 335.463 135.819 298.038C135.819 271.744 125.008 248.143 107.868 232.018L108.319 232.038C103.932 226.85 103.752 224.169 105.281 219.649L134.861 187.575ZM1.86146 468.038C1.84603 467.743 1.83194 467.445 1.81927 467.145V468.038H1.86146Z" fill="currentColor"/>
<path fill-rule="evenodd" clip-rule="evenodd" d="M17.4144 496.883L21.2319 501.019L17.8996 496.932C26.3974 503.807 31.7353 506.577 39.7715 507.924L43.4036 507.923L43.4038 508.423L43.4039 508.789L45.4039 508.922L51.5638 508.92C62.2349 508.447 74.1858 505.753 82.4278 497.859L104.99 471.912C106.417 469.269 107.984 466.998 109.663 465.164L131.257 427.669C143.969 396.788 175.929 374.874 213.353 374.86C239.648 374.851 263.252 385.653 279.384 402.787L279.363 402.336C284.553 406.72 287.233 406.899 291.753 405.369L323.816 375.777L323.223 375.134L329.819 368.538L247.874 293.493L234.191 278.667L17.4144 496.883ZM233.591 278.018L232.521 277.254L232.718 277.072L233.591 278.018ZM44.2968 508.922C43.9969 508.91 43.6992 508.896 43.404 508.88L43.404 508.923L44.2968 508.922Z" fill="currentColor" filter="brightness(0.85)"/>
</svg>
