<svg width="512" height="512" viewBox="0 0 512 512" fill="none" xmlns="http://www.w3.org/2000/svg">
<path d="M12.5901 326.581V38.152C16.1191 21.4735 29.1843 3.59614 50.7421 -6.10352e-05H461.258C482.041 6.42304 491.204 13.6102 499.41 38.152V326.581C492.348 350.086 483.722 358.155 461.258 364.733H50.7421C25.8557 355.729 18.023 347.069 12.5901 326.581Z" fill="currentColor"/>
<path d="M49.2161 318.951C49.8654 325.176 51.7929 327.253 58.3725 328.107H362.063L194.194 36.6259H58.3725C51.7357 37.4402 50.0901 39.7691 49.2161 45.7824V318.951Z" fill="#4F5D73"/>
<path d="M453.627 36.6259H194.194L362.062 328.107H453.627C458.74 327.613 460.886 326.167 462.784 320.477V45.7824C461.389 39.1241 458.859 37.8616 453.627 36.6259Z" fill="#727D8F"/>
<path d="M168.25 438.748C189.735 426.387 196.208 416.624 197.246 393.729C197.833 379.031 197.143 373.697 195.72 364.733H317.043C315.321 375.371 315.345 381.937 315.517 393.729C318.311 419.584 324.173 430.055 345.276 438.748H168.25Z" fill="currentColor" filter="brightness(0.75)"/>
<rect x="109.496" y="463.165" width="293.008" height="48.8346" rx="24.4173" fill="black" fill-opacity="0.25"/>
<path d="M12.5901 350.998V326.581C19.3023 346.931 26.8633 355.871 50.7421 364.733H461.258C482.634 359.046 491.417 350.461 499.41 327.344V349.472C493.045 372.324 485.53 382.147 458.206 389.15H52.2682C27.4229 381.537 19.1283 372.878 12.5901 350.998Z" fill="black" fill-opacity="0.25"/>
<rect x="109.496" y="438.748" width="293.008" height="48.8346" rx="24.4173" fill="currentColor"/>
</svg>
