<svg width="513" height="512" viewBox="0 0 513 512" fill="none" xmlns="http://www.w3.org/2000/svg">
<path d="M512.667 256C512.667 397.385 398.051 512 256.667 512C115.282 512 0.666504 397.385 0.666504 256C0.666504 114.615 115.282 0 256.667 0C398.051 0 512.667 114.615 512.667 256ZM56.0724 256C56.0724 366.785 145.881 456.594 256.667 456.594C367.452 456.594 457.261 366.785 457.261 256C457.261 145.215 367.452 55.4059 256.667 55.4059C145.881 55.4059 56.0724 145.215 56.0724 256Z" fill="#FF4848"/>
<rect x="366.022" y="111.891" width="67" height="356.554" rx="33.5" transform="rotate(47.9416 366.022 111.891)" fill="#FF4848"/>
<rect x="399.402" y="367.406" width="67" height="356.554" rx="33.5" transform="rotate(138.457 399.402 367.406)" fill="#FF4848"/>
</svg>
