<svg width="17" height="16" viewBox="0 0 17 16" fill="none" xmlns="http://www.w3.org/2000/svg">
<path d="M5.33162 0.996881C5.34685 0.947421 5.36761 0.893821 5.39349 0.839135C5.39571 0.587536 5.54426 0.354805 5.78457 0.236718C6.04425 0.109114 6.28127 0.00711745 6.58182 0.00711745H7.07823C7.24924 0.00711745 7.49366 -0.0231809 7.64984 0.0412472C7.74313 0.0797308 7.83884 0.0478982 7.93732 0.0645175C8.06944 0.0868148 8.20328 0.103323 8.33845 0.117264C8.54236 0.138293 8.73861 0.180562 8.94183 0.204139C9.10922 0.223561 9.2658 0.278159 9.42486 0.286361C9.49786 0.290126 9.60085 0.315621 9.67222 0.336004C9.73566 0.354123 9.84293 0.398059 9.90622 0.398059C10.117 0.398059 10.3317 0.528411 10.5246 0.593529C10.6534 0.636995 10.9302 0.699522 11.0194 0.802962C11.0994 0.895832 11.3507 0.97517 11.4706 1.03411C11.5343 1.06539 11.5823 1.10001 11.6511 1.1303C11.7329 1.16623 11.8316 1.2544 11.9219 1.26371C11.9413 1.26571 12.1191 1.3459 12.1325 1.36145C12.1701 1.40502 12.3048 1.39164 12.3581 1.43126C12.5089 1.54323 12.6629 1.67117 12.8211 1.77721C12.9221 1.84494 13.1162 2.00849 13.1788 2.10145C13.2221 2.16581 13.316 2.23443 13.381 2.2814C13.4453 2.3278 13.4915 2.40029 13.5599 2.43654C13.6979 2.50976 13.837 2.68269 13.9443 2.79335C14.032 2.88379 14.1136 2.96612 14.185 3.0788C14.3618 3.35782 14.5613 3.60495 14.7934 3.82035C14.9366 3.95328 15.0286 4.14224 15.1176 4.30747C15.1863 4.43492 15.3133 4.58828 15.3215 4.72634C15.3399 5.03278 15.5335 5.35211 15.6207 5.63543C15.664 5.77612 15.6883 5.91652 15.736 6.0605C15.7802 6.19375 15.8248 6.37636 15.833 6.5135C15.8379 6.59525 15.863 6.6723 15.863 6.75085C15.863 6.8294 15.9232 6.8958 15.9232 6.97425C15.9232 7.10809 15.9444 7.27348 15.9817 7.39466C16.0219 7.52506 15.9834 7.71769 15.9834 7.85387V8.30066C15.9834 8.37115 16.0025 8.46882 15.9817 8.53646C15.9639 8.59433 15.9232 8.63942 15.9232 8.70556C15.9232 8.78772 15.8199 8.92371 15.7795 8.99876C15.7707 9.01509 15.7728 8.86486 15.7728 8.82501C15.7728 8.66222 15.7126 8.51533 15.7126 8.34254C15.7126 8.16049 15.6525 7.9719 15.6525 7.7825C15.6525 7.35644 15.3632 6.90139 15.1109 6.56314C14.9683 6.37186 14.8247 6.2019 14.6764 6.02482C14.5924 5.92463 14.4371 5.7546 14.3137 5.70369C14.2297 5.66905 14.1507 5.56641 14.088 5.50822C14.0245 5.44923 13.9283 5.41202 13.854 5.3686C13.6929 5.27442 13.5348 5.14595 13.366 5.06763C13.2242 5.00181 12.9685 4.89388 12.8077 4.89388C12.6236 4.89388 12.4384 4.75426 12.2679 4.75426C12.1221 4.75426 11.9707 4.68491 11.825 4.66428L11.8104 4.66221C11.6827 4.64416 11.5717 4.62848 11.4472 4.59292C11.2985 4.55045 11.11 4.55879 10.9525 4.55879C10.5103 4.55879 10.0514 4.53087 9.62041 4.53087H8.50894C8.32872 4.53087 8.18011 4.45678 7.99749 4.44709C7.85312 4.43944 7.71494 4.36689 7.5763 4.36332C7.48659 4.36101 7.29015 4.36431 7.22197 4.31368C7.1793 4.28199 7.0626 4.29631 7.00301 4.26558C6.93036 4.22812 6.80031 4.21291 6.71721 4.19577C6.59003 4.16954 6.42598 4.10145 6.31106 4.04219C6.22921 3.99999 6.07026 4.01697 6.00185 3.96617C5.98366 3.95267 5.86921 3.88994 5.84474 3.8886C5.70809 3.88114 5.61004 3.75453 5.51381 3.66521C5.39124 3.55145 5.28859 3.43882 5.18287 3.31616C5.08698 3.2049 5.11121 3.00103 5.04749 2.87092C4.98441 2.74211 5.00236 2.52253 5.00236 2.38069V1.9339C5.00236 1.6159 5.2401 1.29422 5.33162 0.996881Z" fill="#ECAD1D"/>
<path d="M10.5256 5.12821C10.4694 5.11571 10.1251 5.0117 10.0374 5.0014H10.2974C10.3574 5.02807 11.2044 4.84689 11.2664 4.87447C11.3901 4.92946 11.7069 4.89436 11.8367 4.91795C12.298 5.00184 12.5292 5.16186 12.9736 5.30075C13.1401 5.35278 13.3452 5.43122 13.5 5.5C13.6473 5.56546 14.756 6.30409 15 6.5C15.0267 6.51068 15.3425 7.15682 15.3499 7.18264C15.3686 7.24802 15.4119 7.29745 15.4452 7.35582C15.4767 7.46595 15.7161 7.8817 15.7452 7.98378C15.7733 8.08191 15.8703 8.1807 15.8703 8.29163C15.8703 8.42158 15.9333 8.53292 15.9333 8.65372C15.9333 8.71136 15.9648 8.77093 15.9648 8.82689C15.9648 8.89065 16.0086 8.94265 16.012 9.00006C16.0157 9.06249 16.0592 9.11206 16.0592 9.17323V9.37788C16.0592 9.50249 15.9962 9.62627 15.9962 9.74784C15.9962 9.81345 15.9616 9.87619 15.9481 9.93675C15.9349 9.99653 15.9073 10.0733 15.8782 10.1257C15.8474 10.181 15.8448 10.2455 15.8152 10.2988C15.7889 10.3461 15.774 10.4193 15.7592 10.4711C15.7292 10.5763 15.6441 10.6753 15.6193 10.7869C15.6003 10.8721 15.5355 10.9968 15.4802 11.0659C15.4519 11.1012 15.4467 11.1708 15.4173 11.2075C15.3976 11.2321 15.3527 11.3444 15.3508 11.3772C15.349 11.4082 15.2948 11.4826 15.2756 11.5067C15.2396 11.5516 15.2358 11.6093 15.2056 11.6606C15.1819 11.7009 15.1624 11.7633 15.1269 11.7988C15.1057 11.8199 15.0396 11.9149 15.0359 11.944C15.0316 11.9789 14.9629 12.086 14.938 12.1136C14.9019 12.1537 14.897 12.2082 14.8628 12.2509C14.7963 12.334 14.7514 12.453 14.6975 12.55C14.6445 12.6454 14.602 12.7461 14.5322 12.8334C14.4682 12.9134 14.4042 13.0255 14.3196 13.0932C14.2284 13.1661 14.177 13.2664 14.0949 13.3486C14.0103 13.4331 13.9555 13.5351 13.8745 13.6162C13.8407 13.65 13.8226 13.7013 13.7888 13.7351C13.7485 13.7754 13.7037 13.8234 13.6786 13.8646C13.659 13.8966 13.5352 13.9498 13.5719 13.9039C13.584 13.8888 13.6022 13.852 13.6033 13.8331C13.6058 13.7907 13.6253 13.6796 13.6541 13.6477C13.6901 13.6076 13.6763 13.5211 13.7013 13.471C13.7252 13.4232 13.7608 13.3431 13.7608 13.29C13.7608 13.2357 13.7972 13.1692 13.8089 13.1168C13.825 13.0441 13.867 12.9773 13.8858 12.9113C13.9047 12.8452 13.9339 12.7616 13.9339 12.6917C13.9339 12.6314 13.934 12.5459 13.9506 12.488C13.9863 12.3627 13.9533 12.223 13.982 12.0935C14.0085 11.9746 14.0284 11.827 14.0284 11.7078C14.0284 11.5384 14.0914 11.3732 14.0914 11.204V10.779C14.0914 10.7095 14.0599 10.6571 14.0599 10.5901C14.0599 10.562 14.0569 10.425 14.0406 10.4047C14.0082 10.3641 14.0313 10.2649 14.0284 10.2123C14.0254 10.1591 14.0106 10.083 13.996 10.0321C13.9804 9.97741 13.9654 9.91858 13.9654 9.85804C13.9654 9.7935 13.9339 9.73925 13.9339 9.68487C13.9339 9.65015 13.9213 9.54097 13.8946 9.51957C13.8782 9.50643 13.8577 9.47637 13.8552 9.4566C13.8515 9.42658 13.8136 9.41714 13.8089 9.40062C13.7745 9.28039 13.7608 9.15241 13.7608 9.02367C13.7608 8.9668 13.7293 8.90737 13.7293 8.8505C13.7293 8.79751 13.6821 8.73802 13.6821 8.6852C13.6821 8.61087 13.6506 8.54155 13.6506 8.4683C13.6506 8.41393 13.6065 8.36342 13.6033 8.30738C13.6017 8.27851 13.5774 8.24961 13.571 8.22079C13.5647 8.19272 13.5483 8.14408 13.5369 8.11846C13.5082 8.05385 13.5033 7.97993 13.4739 7.91381C13.4222 7.7974 13.3948 7.63352 13.3007 7.53948C13.252 7.49074 13.1983 7.45138 13.194 7.37855C13.193 7.36081 13.1524 7.23193 13.1389 7.22113C13.1199 7.2059 13.1324 7.14943 13.1311 7.12667C13.1293 7.09753 13.0971 7.07988 13.0838 7.0567C13.0552 7.00664 13.0094 6.97464 12.9736 6.92989C12.9457 6.895 12.9062 6.85547 12.8713 6.82756C12.8332 6.79707 12.7981 6.74586 12.769 6.70949C12.6404 6.54873 12.5181 6.39653 12.3632 6.24158C12.3336 6.21201 12.2678 6.18556 12.246 6.15062C12.2154 6.10169 12.1587 6.05542 12.12 6.01243C12.0868 5.97548 12.048 5.9485 12.0098 5.91798C11.9688 5.88517 11.8642 5.86408 11.8367 5.82002C11.8091 5.77594 11.7295 5.75667 11.695 5.72906C11.6581 5.69956 11.6009 5.66673 11.5568 5.64335C11.4566 5.59034 11.3741 5.53507 11.2664 5.50429C11.2334 5.49485 11.167 5.44835 11.1396 5.42645C11.1026 5.39682 11.0253 5.35892 10.983 5.34686C10.8784 5.31697 10.7911 5.22006 10.6839 5.18944C10.6765 5.18731 10.6199 5.15868 10.6157 5.15533C10.5965 5.13998 10.5516 5.134 10.5256 5.12821Z" fill="#B6B6B6" fill-opacity="0.5"/>
<path d="M13.3388 13.7859C13.3303 13.5809 13.3055 13.3763 13.2936 13.1788C13.2925 13.1589 13.2677 13.1409 13.2624 13.1226C13.2557 13.0994 13.2745 13.0532 13.2535 13.0367C13.2293 13.0176 13.2317 12.9114 13.2169 12.8787C13.1981 12.8369 13.1813 12.774 13.1813 12.7287V12.7262C13.1813 12.6908 13.1813 12.5819 13.1572 12.5629C13.1361 12.5463 13.1025 12.4616 13.101 12.4365C13.0972 12.3735 13.0532 12.339 13.0377 12.2856C13.0253 12.2429 13.0122 12.1576 12.9851 12.1242C12.9617 12.0954 12.9266 11.9836 12.9244 11.947C12.9183 11.8441 12.7923 11.7564 12.7799 11.6469C12.7732 11.5875 12.7157 11.5434 12.7157 11.4811C12.7157 11.4573 12.6772 11.3608 12.6595 11.3468C12.6231 11.3182 12.6194 11.2482 12.6194 11.2047C12.6194 11.1345 12.507 11.1614 12.4901 11.1029C12.4863 11.0899 12.4095 11.0211 12.3911 11.0029C12.3546 10.967 12.3318 10.9379 12.2983 10.8967C12.1743 10.7442 12.057 10.5939 11.9255 10.4502C11.8598 10.3783 11.7712 10.3142 11.7008 10.2448C11.6581 10.2028 11.6392 10.1772 11.5848 10.1466C11.5496 10.1268 11.4847 10.0699 11.4635 10.0439C11.4331 10.0065 11.378 9.98291 11.3351 9.96058C11.3077 9.94628 11.2229 9.9059 11.2067 9.886C11.1519 9.81862 11.0512 9.78131 10.9855 9.71666C10.918 9.6503 10.8075 9.62773 10.7376 9.56576C10.6484 9.48679 10.5211 9.44219 10.4076 9.40783C10.3168 9.38037 10.2224 9.374 10.1311 9.34904C10.0547 9.32816 9.96169 9.34429 9.89028 9.31307C9.84329 9.29252 9.72463 9.29377 9.67445 9.29377C9.60915 9.29377 9.54164 9.27798 9.48092 9.27798C9.42597 9.27798 9.37492 9.2306 9.31235 9.2306C9.24944 9.2306 9.1971 9.19901 9.12774 9.19901C8.989 9.19901 8.84974 9.18832 8.71481 9.18322C8.57722 9.17801 8.43842 9.19117 8.30098 9.18322C8.18355 9.17642 8.06666 9.13584 7.93977 9.13584C7.8118 9.13584 7.67158 9.12005 7.53843 9.12005C7.47033 9.12005 7.41066 9.15163 7.33776 9.15163C7.26934 9.15163 7.19956 9.16357 7.12907 9.16743C7.00922 9.17398 6.8843 9.18322 6.75984 9.18322C6.62473 9.18322 6.4866 9.2148 6.35136 9.2148C6.09345 9.2148 5.86887 9.35694 5.62003 9.35694C5.48368 9.35694 5.35478 9.42011 5.21869 9.42011C5.09827 9.42011 4.97954 9.45236 4.87265 9.4824C4.82834 9.49486 4.74853 9.49907 4.70498 9.49907C4.64023 9.49907 4.58276 9.51487 4.52036 9.51487C4.45696 9.51487 4.41146 9.54645 4.3518 9.54645C4.28808 9.54645 4.22792 9.56388 4.16718 9.57716C3.9564 9.62324 3.74174 9.6728 3.51701 9.6728C3.39704 9.6728 3.27209 9.68859 3.14778 9.68859C3.02711 9.68859 2.91639 9.64121 2.80263 9.64121C2.67341 9.64121 2.55722 9.59947 2.4325 9.57716C2.36458 9.56501 2.29977 9.51853 2.23273 9.51487C2.1703 9.51146 2.12069 9.45543 2.05614 9.4517C2.02733 9.45003 1.96293 9.38841 1.94376 9.36484C1.90913 9.32225 1.86432 9.32601 1.82782 9.29728C1.79454 9.27109 1.71635 9.27471 1.6869 9.23849C1.65853 9.2036 1.60046 9.17563 1.57096 9.13935C1.5192 9.0757 1.46203 9.00308 1.39437 8.94984C1.31837 8.89003 1.18736 8.87295 1.12503 8.79629C0.994246 8.63547 0.860109 8.48742 0.704068 8.33392C0.631782 8.2628 0.528914 8.14675 0.514993 8.03034C0.505552 7.9514 0.408756 7.77933 0.34643 7.73028C0.31131 7.70264 0.283644 7.59757 0.261703 7.55656C0.227825 7.49324 0.192695 7.41294 0.176975 7.34336C0.149914 7.22356 0.0776848 7.11701 0.0503305 6.99591C0.0378967 6.94087 0.0494387 6.87077 0.0494387 6.8143C0.0494387 6.7506 0.0333851 6.69406 0.0333851 6.63268C0.0333851 6.5722 0.00127794 6.53149 0.00127794 6.47914C0.00127794 6.40272 -0.00159743 6.32564 0.00127794 6.24926C0.00269456 6.21164 0.024542 6.1783 0.0324932 6.1431C0.0449836 6.08781 0.0714048 6.17407 0.080654 6.14222C0.0963111 6.08832 0.113653 6.03286 0.113653 5.97728C0.113653 5.93426 0.160876 5.8583 0.177867 5.81233C0.201519 5.74835 0.242082 5.69425 0.242082 5.62194C0.242082 5.50097 0.306296 5.36421 0.306296 5.24291C0.306296 5.12182 0.383703 4.99498 0.438292 4.88757C0.486683 4.79236 0.584789 4.72142 0.639854 4.6191C0.688037 4.52956 0.792137 4.45843 0.820902 4.35939C0.848201 4.2654 0.922034 4.1849 0.949331 4.09091C0.977265 3.99473 1.05952 3.88616 1.12503 3.81366C1.28844 3.63281 1.43711 3.44704 1.55848 3.2381C1.57846 3.20369 1.61082 3.15017 1.64231 3.12229C1.67271 3.09537 1.73101 3.06566 1.75112 3.03104C1.81632 2.91879 1.79928 3.14393 1.79928 3.18546C1.79928 3.235 1.81774 3.33692 1.78679 3.37497C1.76236 3.40501 1.76105 3.51305 1.75201 3.55308C1.74111 3.60134 1.73506 3.6727 1.73506 3.71891C1.73506 3.83717 1.70789 3.96829 1.70296 4.09442C1.69769 4.22909 1.6869 4.36956 1.6869 4.50855C1.6869 4.5696 1.67428 4.64614 1.6878 4.70596C1.69719 4.74755 1.69455 4.79113 1.70385 4.8323C1.7119 4.86793 1.73506 4.88818 1.73506 4.92706C1.73506 4.96354 1.75493 5.08786 1.77966 5.11218C1.80066 5.13284 1.83139 5.22936 1.83139 5.2587C1.83139 5.30909 1.87647 5.35731 1.87955 5.40874C1.8813 5.438 1.91177 5.52338 1.93128 5.54736C1.96186 5.58497 1.95334 5.64534 1.98479 5.68511C2.00812 5.71463 2.06779 5.78472 2.07219 5.81935C2.08188 5.8956 2.18576 5.99059 2.23273 6.04835C2.25066 6.0704 2.32684 6.11787 2.32905 6.13521C2.33456 6.17863 2.4132 6.1999 2.42448 6.23874C2.43386 6.27105 2.47812 6.33625 2.50207 6.35981C2.5408 6.39792 2.56649 6.44842 2.60998 6.48265C2.64766 6.5123 2.67342 6.55576 2.71433 6.58091C2.75686 6.60706 2.82733 6.65714 2.85882 6.69585C2.89804 6.74409 3.06129 6.82624 3.13173 6.83009C3.16102 6.83169 3.27522 6.8802 3.29226 6.90116C3.3216 6.93723 3.38875 6.94077 3.42426 6.96872C3.4619 6.99834 3.52484 7.0257 3.5732 7.03627C3.62788 7.04823 3.6812 7.09847 3.73463 7.11348C3.85893 7.14842 3.9776 7.1908 4.10208 7.22579C4.22902 7.26147 4.38125 7.32736 4.52125 7.33546C4.64053 7.34236 4.76198 7.39863 4.88157 7.39863C5.00902 7.39863 5.16666 7.42593 5.28291 7.47409C5.34244 7.49875 5.45128 7.52497 5.51568 7.52497C5.57851 7.52497 5.6453 7.55656 5.71279 7.55656C5.80748 7.55656 5.8999 7.60394 5.9964 7.60394C6.06443 7.60394 6.12324 7.61973 6.18993 7.61973C6.32556 7.61973 6.44341 7.65132 6.57522 7.65132C6.70249 7.65132 6.82122 7.66711 6.95248 7.66711C7.2362 7.66711 7.51102 7.6829 7.79529 7.6829C7.91263 7.6829 8.05016 7.66316 8.16542 7.68378C8.3198 7.71139 8.47948 7.73028 8.6381 7.73028C8.77423 7.73028 8.90696 7.74607 9.03944 7.74607C9.19012 7.74607 9.33417 7.77766 9.48181 7.77766C9.82203 7.77766 10.1628 7.79345 10.5003 7.79345C10.7529 7.79345 11.0065 7.82504 11.2629 7.82504C11.3687 7.82504 11.491 7.87242 11.6 7.87242C11.6618 7.87242 11.7076 7.88468 11.7686 7.88821C11.8175 7.89104 11.8683 7.93559 11.9211 7.93559C12.0189 7.93559 12.1259 8.01455 12.2261 8.01455C12.2748 8.01455 12.328 8.06193 12.3786 8.06193C12.4309 8.06193 12.3945 8.07772 12.3625 8.07772C12.3169 8.07772 12.3691 8.09102 12.3946 8.1058C12.4785 8.15434 12.5626 8.22 12.6515 8.26373C12.7034 8.28925 12.7467 8.32114 12.804 8.3462C12.8583 8.36994 12.8838 8.41414 12.9315 8.44096C12.9763 8.4661 13.0419 8.4885 13.0814 8.52343C13.1142 8.5525 13.1431 8.60671 13.1732 8.63047C13.2463 8.688 13.2757 8.79531 13.3454 8.86385C13.3711 8.88912 13.4112 8.98378 13.4212 9.01827C13.4404 9.08459 13.4363 9.10597 13.4899 9.14812C13.5036 9.15894 13.5561 9.17831 13.5746 9.18234C13.6036 9.18868 13.5992 9.21206 13.6227 9.2306C13.6404 9.2445 13.6295 9.28914 13.6308 9.30956C13.6333 9.35218 13.6342 9.34115 13.5701 9.34115C13.568 9.34115 13.5658 9.34112 13.5635 9.34106C13.5704 9.35169 13.5789 9.36206 13.5862 9.36922C13.6069 9.38961 13.593 9.41705 13.6111 9.43941C13.6391 9.47374 13.6294 9.52959 13.6709 9.56225C13.753 9.62688 13.7271 9.78197 13.7271 9.8781V10.0597C13.7271 10.0885 13.7254 10.1179 13.7271 10.1466C13.7284 10.1687 13.7564 10.1877 13.7592 10.2098C13.7644 10.2503 13.8109 10.2892 13.8225 10.3291C13.8378 10.3818 13.8395 10.4628 13.8395 10.5177C13.8395 10.5492 13.8656 10.6328 13.8841 10.6555C13.9002 10.6753 13.8736 10.7136 13.8957 10.7309C13.9265 10.7552 13.9423 10.7809 13.9527 10.8169C13.9854 10.9294 14 11.0224 14 11.1494C14 11.2152 13.9583 11.2673 13.9518 11.331C13.9484 11.365 13.9321 11.398 13.9242 11.4314C13.9215 11.4593 13.9197 11.4863 13.9197 11.5118V11.4653C13.9197 11.4539 13.9215 11.4426 13.9242 11.4314C13.9363 11.3043 13.9668 11.158 13.9322 11.0433C13.9307 11.0381 13.929 11.0327 13.9272 11.0272C13.9314 11.0891 13.9358 11.1526 13.9358 11.2126C13.9358 11.3347 13.8876 11.453 13.8876 11.5679C13.8876 11.6194 13.8555 11.6605 13.8555 11.718C13.8555 11.7582 13.8527 11.8625 13.8359 11.8996C13.8122 11.9519 13.8192 12.0246 13.8065 12.0812C13.7902 12.1533 13.7938 12.2326 13.7672 12.3005C13.7501 12.3444 13.7431 12.438 13.7431 12.4839C13.7431 12.5425 13.711 12.609 13.711 12.6655V12.8472C13.711 12.8986 13.7132 13.0024 13.6825 13.0402C13.651 13.0789 13.6568 13.1858 13.6459 13.2341C13.6313 13.2987 13.606 13.3663 13.5987 13.4315C13.5845 13.5564 13.5336 13.6596 13.5014 13.7702C13.486 13.8232 13.4146 13.9807 13.3489 13.9991C13.2936 14.0147 13.2936 13.813 13.2936 13.7633V13.7631C13.2936 13.699 13.3189 13.7441 13.3388 13.7859Z" fill="#66C7FD"/>
<path d="M1.64953 2.87253C1.65128 2.86312 1.65628 2.85177 1.66366 2.83926C1.70334 2.77202 1.81191 2.67135 1.85617 2.6587C1.88606 2.65016 1.9229 2.58838 1.94943 2.56715C1.98218 2.54096 2.01874 2.52094 2.04612 2.48672C2.07396 2.45192 2.08753 2.41451 2.12312 2.37892C2.15122 2.35081 2.20555 2.33332 2.24205 2.31304C2.33219 2.26296 2.4035 2.23438 2.50386 2.21207C2.62086 2.18607 2.72673 2.18213 2.85038 2.18213C2.94249 2.18213 3.07128 2.19191 3.1507 2.23603C3.20667 2.26712 3.38514 2.35597 3.38941 2.42854C3.39231 2.47786 3.43919 2.5142 3.45187 2.55859L3.45246 2.56064C3.46174 2.59317 3.48913 2.68912 3.5092 2.70918C3.53444 2.73442 3.57213 2.79339 3.57422 2.82896C3.57679 2.87257 3.63948 2.92629 3.65037 2.97527C3.65404 2.99179 3.69536 3.08296 3.70513 3.09078C3.73738 3.11658 3.73707 3.19423 3.76245 3.22596C3.79289 3.26401 3.80335 3.31117 3.82406 3.35259C3.84816 3.40079 3.89764 3.44257 3.89764 3.4989C3.89764 3.54922 3.94052 3.58871 3.94384 3.64521C3.94653 3.69086 3.99548 3.74282 4.0063 3.79152C4.02831 3.89054 4.12265 3.98373 4.12865 4.09183C4.13395 4.18715 4.19083 4.3098 4.22448 4.40327C4.23917 4.44409 4.26802 4.52401 4.29464 4.55728C4.33261 4.60475 4.32159 4.69169 4.35196 4.74637C4.40732 4.846 4.40422 4.96979 4.45977 5.06979C4.49129 5.12653 4.52214 5.14311 4.56758 5.17845C4.612 5.213 4.63435 5.23752 4.6711 5.27428C4.70874 5.31191 4.69704 5.3553 4.71731 5.4009C4.7355 5.44184 4.77843 5.47667 4.79003 5.51727C4.79964 5.5509 4.84074 5.57922 4.85335 5.62336C4.86015 5.64717 4.90176 5.7166 4.91752 5.7363C4.98241 5.81742 5.01907 5.90539 5.09548 5.97416C5.14771 6.02117 5.21872 6.08585 5.26831 6.14784C5.28973 6.17461 5.33255 6.22796 5.36072 6.24453C5.39993 6.26759 5.45443 6.29578 5.48393 6.33265C5.49628 6.3481 5.52716 6.34722 5.54211 6.35918C5.56238 6.3754 5.56317 6.39429 5.58403 6.41051C5.62184 6.43992 5.67105 6.47443 5.70296 6.50634C5.77118 6.57456 5.85537 6.61801 5.92713 6.6826C5.98873 6.73804 6.07863 6.78138 6.16926 6.80152C6.25453 6.82047 6.32803 6.87808 6.40798 6.91361C6.49822 6.95372 6.59378 7.01051 6.69289 7.03254C6.79219 7.0546 6.8875 7.06809 6.98465 7.09585C7.17567 7.15043 7.37739 7.22467 7.56304 7.30719C7.75891 7.39424 7.98625 7.39082 8.18763 7.44836C8.22275 7.45839 8.30904 7.44227 8.33308 7.47232C8.34429 7.48633 8.48088 7.49542 8.50249 7.49542H8.39468H8.21757H7.51684C7.28718 7.49542 7.053 7.5089 6.8238 7.49542C6.7208 7.48936 6.6194 7.46462 6.50808 7.46462H6.13846C6.0216 7.46462 5.90439 7.45546 5.79194 7.44922C5.67672 7.44281 5.57233 7.40301 5.46082 7.40301C5.34625 7.40301 5.23009 7.37221 5.11431 7.37221C5.01063 7.37221 4.85304 7.34511 4.76009 7.29863C4.67484 7.25601 4.56641 7.22222 4.47517 7.20195C4.37763 7.18027 4.28709 7.1104 4.18256 7.1104C4.08305 7.1104 3.98383 7.00824 3.88224 7.00259C3.8389 7.00018 3.79458 6.96765 3.75219 6.95553C3.71503 6.94492 3.65483 6.89681 3.62042 6.89479C3.53671 6.88986 3.40832 6.82907 3.33465 6.78698C3.25632 6.74222 3.12327 6.7279 3.06257 6.6672C3.04076 6.64538 2.97246 6.62106 2.94279 6.61757C2.89188 6.61158 2.85634 6.56977 2.81102 6.55682C2.7708 6.54533 2.66113 6.50025 2.63819 6.46356C2.62635 6.44462 2.5413 6.39175 2.52012 6.3857C2.4622 6.36915 2.36068 6.26595 2.33018 6.21715C2.28101 6.13847 2.20008 6.05282 2.12997 5.98271C2.07452 5.92726 1.99437 5.82768 1.97168 5.74828C1.96981 5.74174 1.93815 5.70938 1.92975 5.69352C1.91951 5.67418 1.89821 5.65339 1.89553 5.63192C1.89164 5.60076 1.85776 5.51464 1.84163 5.48561C1.81976 5.44625 1.80045 5.4031 1.78858 5.36155C1.78197 5.3384 1.74063 5.23944 1.7227 5.21952C1.66334 5.15356 1.65478 4.99132 1.63457 4.90038C1.58402 4.67289 1.61676 4.43498 1.60291 4.19964C1.59659 4.0921 1.57211 3.98318 1.57211 3.86852C1.57211 3.74421 1.63824 3.65952 1.66366 3.5451C1.71029 3.33528 1.57961 3.06939 1.64953 2.87253Z" fill="#B3B3B3" fill-opacity="0.5"/>
<path d="M1.07916 11.8907C1.09569 11.8933 1.11177 11.8967 1.12571 11.9005C1.16349 11.9109 1.16952 11.9564 1.21059 11.9587C1.23767 11.9602 1.26618 11.9882 1.29461 11.9882C1.31185 11.9882 1.37797 11.9965 1.39052 12.0062C1.44216 12.0461 1.5283 12.0436 1.59253 12.0472C1.66144 12.0511 1.72798 12.0914 1.79878 12.0914C1.94884 12.0914 2.11339 12.1566 2.26475 12.1652C2.33326 12.1691 2.40245 12.1922 2.46675 12.1947C2.53479 12.1973 2.6216 12.2057 2.68573 12.2234C2.73771 12.2377 2.84986 12.2389 2.89877 12.2389H3.12794H3.3571C3.44218 12.2389 3.51035 12.1947 3.59391 12.1947C3.66503 12.1947 3.73554 12.1652 3.8078 12.1652C3.84029 12.1652 4.00305 12.1361 4.02168 12.1136C4.03158 12.1016 4.10773 12.0889 4.12863 12.08C4.15092 12.0704 4.21946 12.0619 4.24321 12.0619C4.32176 12.0619 4.38961 12.0115 4.46474 12.0029C4.53042 11.9955 4.57966 11.9222 4.64807 11.9145C4.67432 11.9115 4.70117 11.8777 4.7321 11.871C4.76458 11.8641 4.80994 11.8484 4.8348 11.8292C4.89778 11.7806 5.01971 11.8075 5.08773 11.7637C5.14124 11.7292 5.26308 11.7364 5.30501 11.6858C5.30677 11.6837 5.37506 11.6497 5.3814 11.649C5.40781 11.6458 5.44595 11.6161 5.46543 11.5973C5.51034 11.554 5.59325 11.527 5.64961 11.4982C5.71998 11.4622 5.79907 11.455 5.87029 11.4245C5.90548 11.4094 5.95374 11.3835 5.99251 11.3835C6.00958 11.3835 6.10523 11.3728 6.11473 11.3614C6.15147 11.317 6.3102 11.3152 6.36766 11.295C6.45934 11.2628 6.58682 11.2279 6.6834 11.2212C6.89746 11.2065 7.1146 11.1327 7.32931 11.1327C7.40288 11.1327 7.48233 11.0737 7.55848 11.0737C7.62488 11.0737 7.70077 11.0479 7.76472 11.0442C7.93712 11.0345 8.10767 11 8.28417 11H9.33833C9.42194 11 9.49859 11.0147 9.58277 11.0147C9.66298 11.0147 9.75774 11.059 9.83486 11.059C9.91366 11.059 9.98884 11.0612 10.0649 11.0746C10.1577 11.0909 10.2577 11.1293 10.3501 11.1327C10.4269 11.1356 10.5214 11.1729 10.5911 11.2032C10.6487 11.2282 10.7203 11.2514 10.7821 11.2647C10.8171 11.2722 10.8441 11.293 10.8814 11.295C10.988 11.3007 11.0906 11.3771 11.2022 11.3835C11.2138 11.3841 11.2742 11.4139 11.2862 11.4204L11.2915 11.4232C11.3207 11.4389 11.3668 11.4636 11.394 11.4712C11.4615 11.4898 11.4998 11.5261 11.5621 11.5605C11.609 11.5864 11.6991 11.6755 11.7522 11.6785C11.8976 11.6867 11.9923 11.805 12.1104 11.8702C12.1711 11.9037 12.1952 11.9703 12.2632 11.989C12.3064 12.0009 12.4124 12.0396 12.4253 12.0833C12.437 12.1227 12.4882 12.2493 12.5229 12.2684C12.5581 12.2879 12.5827 12.3788 12.6264 12.4127C12.6363 12.4203 12.6802 12.4559 12.6926 12.4594C12.7223 12.4675 12.7232 12.4999 12.7419 12.5225C12.7815 12.5702 12.8064 12.6409 12.8208 12.7035C12.8312 12.7488 12.8206 12.8576 12.8598 12.8879C12.9203 12.9346 12.9051 13.0066 12.932 13.0649C12.9831 13.176 13.0193 13.3383 12.9889 13.4705C12.9743 13.5337 12.9286 13.6003 12.9286 13.6622C12.9286 13.736 12.9175 13.808 12.8862 13.8761C12.8589 13.9352 12.8852 14.0154 12.8369 14.0678C12.7949 14.1134 12.7923 14.2224 12.775 14.2809C12.7349 14.4162 12.5922 14.5112 12.528 14.6283C12.4955 14.6876 12.423 14.7411 12.3752 14.7873C12.3123 14.848 12.2321 14.8943 12.1681 14.9561C12.1161 15.0063 12.0503 15.0485 11.9967 15.1003C11.9539 15.1416 11.8921 15.2039 11.8371 15.2191C11.8158 15.225 11.79 15.2562 11.7675 15.2658C11.7367 15.279 11.709 15.287 11.6835 15.3068C11.6282 15.3495 11.5342 15.3424 11.4806 15.3838C11.4553 15.4034 11.358 15.4505 11.3244 15.4543C11.2647 15.4611 11.1958 15.5119 11.1343 15.5288C11.0197 15.5605 10.914 15.6423 10.7965 15.6747C10.7328 15.6923 10.6631 15.7031 10.5996 15.7206C10.5713 15.7284 10.5346 15.748 10.5028 15.7493C10.4802 15.7501 10.4129 15.7541 10.3959 15.7673C10.381 15.7788 10.3281 15.7935 10.3085 15.7935C10.2974 15.7935 10.2205 15.8054 10.2126 15.8115C10.1772 15.8388 10.0359 15.8525 9.98763 15.8525C9.85137 15.8525 9.70053 15.8968 9.5675 15.8968C9.54658 15.8968 9.48865 15.9034 9.47583 15.9189C9.45455 15.9446 9.3972 15.9103 9.37228 15.9295C9.32177 15.9685 9.21682 15.9259 9.155 15.9525C9.1209 15.9671 9.07652 15.9468 9.04126 15.9566C9.01244 15.9645 8.97424 15.9835 8.94111 15.9853C8.86327 15.9894 8.79473 16 8.71958 16H8.25361C8.10563 16 7.97383 15.941 7.83347 15.941C7.76025 15.941 7.68567 15.9115 7.61959 15.9115H7.3675C7.30979 15.9115 7.19388 15.9079 7.13834 15.8853C7.05066 15.8496 6.92262 15.8745 6.84042 15.8304C6.80775 15.8129 6.7677 15.8276 6.73433 15.8115C6.70138 15.7956 6.65744 15.7883 6.62569 15.7796C6.58902 15.7695 6.5636 15.7681 6.52723 15.7525C6.50144 15.7415 6.44326 15.7316 6.42368 15.7165C6.37973 15.6825 6.26741 15.6812 6.20979 15.664C6.13807 15.6427 6.05324 15.6606 5.98487 15.6239C5.92647 15.5926 5.80492 15.5856 5.76334 15.5354C5.73981 15.507 5.64043 15.4783 5.60378 15.4682C5.5285 15.4474 5.43896 15.3934 5.37376 15.3584C5.30301 15.3205 5.22404 15.296 5.15224 15.2593C4.88066 15.1205 4.59164 15.0255 4.31196 14.8905C4.17483 14.8243 4.0204 14.7866 3.89607 14.6906C3.83736 14.6453 3.74573 14.6357 3.68558 14.5841C3.64103 14.5458 3.54982 14.495 3.49545 14.48C3.35371 14.4409 3.21704 14.3214 3.08974 14.2563C2.96341 14.1917 2.87523 14.0712 2.76212 14.0088C2.70961 13.9799 2.66605 13.9057 2.60934 13.89C2.57457 13.8804 2.50172 13.7933 2.47864 13.7655C2.40389 13.6753 2.27911 13.6109 2.22231 13.5074C2.16294 13.3991 2.0691 13.3008 1.98975 13.205C1.91791 13.1183 1.84284 13.0351 1.77247 12.9502C1.74344 12.9151 1.65889 12.8253 1.65364 12.7847C1.64687 12.7323 1.57613 12.6961 1.56112 12.6454C1.54494 12.5907 1.45726 12.5673 1.4406 12.511C1.4268 12.4643 1.35257 12.4089 1.32092 12.3569C1.28752 12.3021 1.23507 12.2443 1.19191 12.198C1.16049 12.1643 1.10182 12.1111 1.08921 12.0685C1.08158 12.0427 0.990577 11.9145 1.05017 11.9145C1.08083 11.9145 1.01669 11.917 1.00009 11.8964C0.998508 11.8945 1.01761 11.8881 1.03868 11.886C1.05332 11.8846 1.0689 11.8852 1.07916 11.8907Z" fill="#39C68A"/>
<path d="M7.66979 10.8619H7.83224C7.80329 10.8619 7.75597 10.8317 7.72584 10.825C7.70771 10.8209 7.64329 10.8269 7.63242 10.8133C7.62446 10.8034 7.5592 10.7947 7.54647 10.7947C7.51277 10.7947 7.47888 10.7887 7.4489 10.7801C7.41788 10.7713 7.38434 10.7715 7.35215 10.7643C7.31633 10.7564 7.27943 10.7525 7.24379 10.7423C7.20067 10.73 7.15069 10.7199 7.10552 10.7199C7.05613 10.7199 7.00699 10.6975 6.95605 10.6975C6.92515 10.6975 6.88 10.6918 6.84768 10.6842C6.78 10.6683 6.70623 10.6756 6.64008 10.6543C6.57658 10.6339 6.49722 10.6253 6.43081 10.6228C6.39717 10.6215 6.33373 10.6153 6.3021 10.602C6.28848 10.5963 6.26276 10.6077 6.25145 10.5987C6.23588 10.5862 6.22479 10.5854 6.20494 10.5854C6.15341 10.5854 6.08372 10.569 6.03471 10.5538C5.95684 10.5297 5.86998 10.524 5.79223 10.4957C5.74088 10.477 5.67788 10.489 5.62947 10.4675C5.60022 10.4545 5.5527 10.4561 5.5211 10.4513C5.49433 10.4472 5.46491 10.445 5.43806 10.443C5.34397 10.436 5.24514 10.4095 5.15115 10.3948C5.05265 10.3794 4.95394 10.3649 4.85511 10.3533C4.81755 10.3489 4.78193 10.3348 4.74342 10.3317C4.68112 10.3267 4.61827 10.3202 4.55741 10.3055C4.48981 10.2892 4.42079 10.2855 4.3552 10.2603C4.29344 10.2365 4.22171 10.2172 4.15674 10.2042C4.10304 10.1935 4.04289 10.1743 3.98858 10.1743C3.92588 10.1743 3.84902 10.1703 3.78762 10.1557C3.73089 10.1421 3.66088 10.1391 3.60244 10.137C3.52184 10.134 3.44537 10.0753 3.3666 10.0697C3.3416 10.0679 3.32267 10.0483 3.29602 10.0473C3.26904 10.0462 3.24441 10.0331 3.21879 10.0265C3.15646 10.0105 3.08699 10.0076 3.02862 9.98168C3.01029 9.97353 2.98869 9.98029 2.96883 9.97089C2.95415 9.96393 2.92544 9.9576 2.90905 9.9576C2.85856 9.9576 2.79913 9.94379 2.75044 9.92937C2.71935 9.92015 2.68322 9.9254 2.65162 9.91857C2.61439 9.91052 2.57507 9.89917 2.53702 9.89781C2.51337 9.89697 2.49194 9.89034 2.4681 9.89034C2.44595 9.89034 2.42987 9.87647 2.40831 9.87539C2.35126 9.87254 2.29977 9.85389 2.24389 9.84591C2.18559 9.83758 2.09501 9.82349 2.04583 9.78944C2.00961 9.76436 1.96241 9.77216 1.92625 9.75207C1.89606 9.7353 1.82392 9.74834 1.79131 9.74834C1.7057 9.74834 1.63111 9.72136 1.55257 9.70391C1.48891 9.68976 1.42069 9.62876 1.35078 9.62876C1.31022 9.62876 1.26938 9.62128 1.22747 9.62128H1.22739C1.19335 9.62128 1.14692 9.62128 1.11536 9.608C1.0906 9.59757 1.04576 9.58545 1.0182 9.58392C0.9838 9.582 0.951945 9.56149 0.921044 9.56149C0.887798 9.56149 0.851743 9.55402 0.816412 9.55402C0.788055 9.55402 0.737614 9.5442 0.71178 9.55568C0.678516 9.57047 0.640429 9.56331 0.607149 9.5781C0.574059 9.59281 0.533635 9.59568 0.502517 9.61215C0.457042 9.63622 0.397885 9.71002 0.397885 9.76702C0.397885 9.80296 0.375464 9.83482 0.375464 9.87165C0.375464 9.90746 0.353043 9.94227 0.353043 9.97628C0.353043 10.0463 0.34557 10.1202 0.34557 10.193C0.34557 10.2281 0.353043 10.2648 0.353043 10.2977C0.353043 10.3396 0.37008 10.3742 0.375049 10.4139C0.381136 10.4626 0.399045 10.5084 0.405774 10.5555C0.410803 10.5907 0.413502 10.6392 0.42778 10.6713C0.443298 10.7063 0.438672 10.7498 0.457675 10.783C0.465391 10.7965 0.469426 10.812 0.473038 10.8283C0.477413 10.848 0.490761 10.8602 0.495043 10.8773C0.505332 10.9184 0.523251 10.9635 0.543622 11.0002C0.552591 11.0163 0.567827 11.0393 0.580991 11.0525C0.593829 11.0653 0.599211 11.0903 0.611301 11.1007C0.644458 11.1291 0.643722 11.1744 0.663201 11.2094C0.675803 11.2321 0.675018 11.2604 0.685623 11.2838C0.692793 11.2995 0.707892 11.3209 0.711365 11.3365C0.720262 11.3765 0.752034 11.4036 0.769909 11.4374C0.783228 11.4625 0.807389 11.5063 0.831359 11.5213C0.868094 11.5442 0.890171 11.6025 0.928517 11.6259C0.959533 11.6448 0.988832 11.6682 1.01654 11.6932C1.03759 11.7121 1.07826 11.7478 1.10789 11.7513C1.12231 11.753 1.1772 11.7739 1.18844 11.7828C1.19731 11.7899 1.22435 11.7952 1.2366 11.7961C1.26317 11.7982 1.28793 11.8175 1.31549 11.8185C1.36249 11.8204 1.40959 11.8393 1.45749 11.841C1.53593 11.8438 1.61576 11.8858 1.69083 11.8858C1.72615 11.8858 1.76342 11.9082 1.79879 11.9082H1.92252C2.0057 11.9082 2.08057 11.9205 2.15794 11.9377C2.23108 11.954 2.29919 11.9755 2.37468 11.9755C2.45001 11.9755 2.52513 11.9904 2.60262 11.9904H2.95223C3.03392 11.9904 3.11996 11.98 3.20052 11.9755C3.23538 11.9736 3.27094 11.9605 3.30515 11.9605C3.34039 11.9605 3.36944 11.94 3.40231 11.9381C3.42781 11.9367 3.47197 11.9252 3.49573 11.912C3.52831 11.8939 3.57499 11.9003 3.60784 11.8821C3.63643 11.8662 3.68746 11.8787 3.71247 11.8592C3.72975 11.8458 3.75165 11.8451 3.77226 11.8406C3.79042 11.8365 3.80686 11.8185 3.82457 11.8185C3.84786 11.8185 3.88599 11.789 3.90678 11.7774C3.9267 11.7664 3.9886 11.7546 4.0002 11.7401C4.00942 11.7286 4.03482 11.7248 4.04837 11.721C4.06766 11.7155 4.08723 11.6957 4.10816 11.6919C4.14615 11.685 4.17623 11.6619 4.2132 11.6537C4.25127 11.6453 4.29018 11.6299 4.32739 11.6184C4.37378 11.6041 4.41932 11.5895 4.46523 11.5736C4.54689 11.5453 4.63817 11.5342 4.71768 11.4988C4.77802 11.472 4.84329 11.4588 4.90452 11.4316C4.94123 11.4153 4.98914 11.413 5.01829 11.3867C5.02831 11.3777 5.05668 11.3844 5.06728 11.3759C5.07734 11.3679 5.10196 11.3582 5.11544 11.3535C5.18734 11.3286 5.26008 11.3048 5.33426 11.2883C5.40555 11.2725 5.48885 11.2652 5.55473 11.2323C5.5933 11.213 5.65811 11.2043 5.70047 11.1978C5.7286 11.1935 5.76139 11.1836 5.78683 11.1725C5.81024 11.1623 5.84328 11.1691 5.86489 11.1571C5.88243 11.1474 5.91172 11.15 5.93215 11.1422C5.94828 11.136 5.98231 11.131 5.99942 11.131C6.03311 11.131 6.06329 11.1164 6.09657 11.109C6.13159 11.1012 6.17177 11.11 6.20494 11.0953C6.23873 11.0802 6.29071 11.092 6.32452 11.077C6.37161 11.0561 6.43651 11.0616 6.48728 11.0471C6.52542 11.0362 6.57249 11.0407 6.60852 11.0247C6.66867 10.9979 6.73408 10.9992 6.79702 10.9798C6.87989 10.9543 6.97776 10.9586 7.05694 10.9234C7.08708 10.91 7.13169 10.9259 7.16157 10.9126C7.17474 10.9067 7.20241 10.913 7.21223 10.9051C7.22061 10.8984 7.23999 10.8918 7.25126 10.8918C7.27949 10.8918 7.33044 10.894 7.35589 10.8827C7.38759 10.8686 7.42857 10.8819 7.46052 10.8677C7.51418 10.8439 7.61058 10.8619 7.66979 10.8619Z" fill="#9A9A9A" fill-opacity="0.5"/>
</svg>
