<svg width="512" height="512" viewBox="0 0 512 512" fill="none" xmlns="http://www.w3.org/2000/svg">
<path d="M175.524 46.3441C175.98 44.8634 176.602 43.2588 177.377 41.6216C177.444 34.0894 181.893 27.122 189.091 23.5867C196.869 19.7666 203.968 16.7131 212.97 16.7131H227.838C232.96 16.7131 240.281 15.806 244.959 17.7348C247.753 18.8869 250.62 17.934 253.569 18.4315C257.526 19.099 261.535 19.5932 265.584 20.0106C271.691 20.6401 277.569 21.9056 283.656 22.6114C288.67 23.1929 293.359 24.8274 298.123 25.0729C300.31 25.1856 303.395 25.9489 305.532 26.5591C307.433 27.1016 310.645 28.4169 312.541 28.4169C318.854 28.4169 325.285 32.3193 331.063 34.2688C334.921 35.57 343.211 37.4419 345.881 40.5387C348.279 43.319 355.805 45.6942 359.398 47.4588C361.304 48.3952 362.741 49.4317 364.804 50.3383C367.252 51.4139 370.208 54.0535 372.914 54.3324C373.495 54.3923 378.82 56.7927 379.222 57.2584C380.347 58.5627 384.382 58.1623 385.98 59.3484C390.497 62.7004 395.109 66.5308 399.847 69.7053C402.873 71.7327 408.685 76.629 410.56 79.412C411.858 81.3388 414.669 83.3932 416.617 84.7995C418.543 86.1886 419.927 88.3587 421.974 89.4438C426.109 91.6359 430.274 96.8129 433.488 100.126C436.115 102.834 438.558 105.298 440.697 108.672C445.993 117.025 451.968 124.423 458.919 130.872C463.208 134.851 465.965 140.508 468.631 145.455C470.687 149.27 474.491 153.862 474.738 157.995C475.287 167.169 481.087 176.729 483.699 185.211C484.996 189.422 485.724 193.626 487.153 197.936C488.476 201.925 489.811 207.392 490.057 211.498C490.203 213.945 490.958 216.252 490.958 218.604C490.958 220.955 492.76 222.943 492.76 225.292C492.76 229.298 493.395 234.25 494.512 237.878C495.714 241.782 494.562 247.548 494.562 251.625V265.001C494.562 267.111 495.136 270.035 494.512 272.06C493.979 273.793 492.76 275.143 492.76 277.123C492.76 279.582 489.666 283.654 488.455 285.901C488.191 286.389 488.255 281.892 488.255 280.699C488.255 275.825 486.452 271.428 486.452 266.255C486.452 260.805 484.65 255.159 484.65 249.489C484.65 236.733 475.987 223.11 468.43 212.984C464.157 207.258 459.859 202.169 455.415 196.868C452.9 193.869 448.248 188.778 444.551 187.254C442.036 186.217 439.671 183.144 437.793 181.402C435.89 179.636 433.01 178.522 430.785 177.222C425.958 174.403 421.221 170.557 416.167 168.212C411.919 166.242 404.262 163.011 399.447 163.011C393.932 163.011 388.385 158.831 383.277 158.831C378.91 158.831 374.374 156.754 370.011 156.137L369.573 156.075C365.748 155.535 362.426 155.065 358.697 154.001C354.243 152.729 348.597 152.979 343.879 152.979C330.633 152.979 316.888 152.143 303.98 152.143H270.69C265.292 152.143 260.841 149.925 255.371 149.635C251.047 149.406 246.909 147.234 242.756 147.127C240.069 147.058 234.185 147.156 232.143 145.641C230.865 144.692 227.37 145.121 225.585 144.201C223.409 143.079 219.514 142.624 217.025 142.111C213.215 141.326 208.302 139.287 204.86 137.513C202.409 136.25 197.648 136.758 195.599 135.237C195.054 134.833 191.626 132.955 190.893 132.915C186.8 132.692 183.863 128.901 180.981 126.227C177.31 122.821 174.235 119.45 171.069 115.777C168.197 112.447 168.922 106.343 167.014 102.448C165.125 98.592 165.662 92.0183 165.662 87.7719V74.3961C165.662 64.876 172.783 55.2459 175.524 46.3441Z" fill="#ECAD1D"/>
<path d="M331.093 170.026C329.408 169.652 319.097 166.538 316.47 166.229H324.256C326.054 167.028 351.422 161.604 353.281 162.429C356.987 164.076 366.474 163.025 370.361 163.731C384.179 166.242 391.103 171.033 404.415 175.191C409.402 176.749 415.545 179.097 420.181 181.156C424.592 183.116 457.8 205.229 465.108 211.094C465.908 211.414 475.368 230.757 475.589 231.53C476.148 233.488 477.445 234.967 478.444 236.715C479.386 240.012 486.555 252.458 487.429 255.514C488.269 258.452 491.175 261.41 491.175 264.731C491.175 268.621 493.061 271.954 493.061 275.571C493.061 277.296 494.004 279.08 494.004 280.755C494.004 282.664 495.318 284.221 495.419 285.939C495.529 287.808 496.833 289.292 496.833 291.124V297.25C496.833 300.981 494.947 304.686 494.947 308.326C494.947 310.29 493.91 312.168 493.506 313.982C493.109 315.771 492.282 318.069 491.411 319.637C490.49 321.294 490.412 323.225 489.525 324.821C488.738 326.237 488.291 328.429 487.848 329.979C486.948 333.129 484.4 336.091 483.657 339.432C483.089 341.984 481.147 345.716 479.492 347.784C478.645 348.842 478.486 350.926 477.606 352.026C477.018 352.76 475.673 356.123 475.615 357.105C475.56 358.033 473.938 360.261 473.362 360.98C472.285 362.325 472.171 364.052 471.266 365.589C470.556 366.796 469.972 368.663 468.909 369.726C468.275 370.359 466.293 373.203 466.184 374.072C466.054 375.118 463.996 378.323 463.25 379.152C462.171 380.35 462.022 381.982 460.998 383.262C459.008 385.748 457.661 389.313 456.047 392.217C454.459 395.073 453.187 398.087 451.096 400.7C449.178 403.096 447.262 406.452 444.73 408.477C441.998 410.662 440.458 413.663 437.998 416.122C435.464 418.655 433.824 421.708 431.396 424.135C430.384 425.147 429.842 426.683 428.829 427.695C427.622 428.902 426.283 430.337 425.529 431.571C424.943 432.528 421.234 434.122 422.333 432.749C422.696 432.295 423.242 431.196 423.276 430.628C423.351 429.359 423.935 426.033 424.795 425.077C425.875 423.878 425.46 421.287 426.21 419.788C426.925 418.358 427.991 415.958 427.991 414.368C427.991 412.745 429.083 410.754 429.432 409.184C429.916 407.006 431.172 405.008 431.737 403.031C432.302 401.053 433.178 398.551 433.178 396.459C433.178 394.653 433.18 392.093 433.676 390.358C434.747 386.608 433.757 382.426 434.619 378.549C435.41 374.988 436.007 370.57 436.007 367.003C436.007 361.932 437.893 356.985 437.893 351.921V339.196C437.893 337.115 436.95 335.548 436.95 333.54C436.95 332.701 436.861 328.598 436.374 327.99C435.401 326.775 436.094 323.804 436.007 322.229C435.919 320.639 435.473 318.359 435.038 316.835C434.57 315.199 434.121 313.437 434.121 311.625C434.121 309.693 433.178 308.069 433.178 306.441C433.178 305.401 432.8 302.133 431.999 301.492C431.507 301.099 430.894 300.199 430.82 299.607C430.708 298.708 429.573 298.426 429.432 297.931C428.403 294.332 427.991 290.5 427.991 286.646C427.991 284.944 427.048 283.164 427.048 281.462C427.048 279.875 425.633 278.095 425.633 276.513C425.633 274.288 424.69 272.213 424.69 270.02C424.69 268.392 423.369 266.88 423.276 265.202C423.228 264.338 422.498 263.473 422.307 262.61C422.12 261.769 421.626 260.313 421.285 259.547C420.425 257.612 420.279 255.399 419.399 253.42C417.849 249.935 417.029 245.029 414.212 242.213C412.752 240.754 411.145 239.576 411.016 237.395C410.985 236.864 409.77 233.006 409.366 232.682C408.796 232.227 409.17 230.536 409.13 229.855C409.079 228.982 408.112 228.454 407.716 227.76C406.859 226.261 405.487 225.303 404.415 223.963C403.579 222.919 402.395 221.735 401.35 220.9C400.209 219.987 399.157 218.454 398.285 217.365C394.433 212.553 390.771 207.996 386.13 203.357C385.245 202.472 383.274 201.68 382.62 200.634C381.704 199.169 380.007 197.784 378.848 196.497C377.852 195.391 376.69 194.583 375.547 193.669C374.319 192.687 371.185 192.056 370.361 190.737C369.536 189.417 367.15 188.84 366.117 188.014C365.012 187.131 363.301 186.148 361.978 185.448C358.979 183.861 356.507 182.206 353.281 181.285C352.292 181.002 350.303 179.61 349.483 178.954C348.373 178.067 346.058 176.933 344.794 176.572C341.66 175.677 339.045 172.776 335.835 171.859C335.612 171.795 333.917 170.938 333.792 170.838C333.217 170.378 331.873 170.199 331.093 170.026Z" fill="#B6B6B6" fill-opacity="0.5"/>
<path d="M415.353 429.215C415.097 423.078 414.354 416.953 414 411.04C413.964 410.446 413.224 409.906 413.065 409.359C412.863 408.664 413.426 407.28 412.798 406.785C412.074 406.216 412.144 403.034 411.703 402.057C411.137 400.806 410.634 398.922 410.634 397.566V397.491C410.635 396.43 410.636 393.17 409.913 392.601C409.281 392.104 408.275 389.569 408.23 388.819C408.117 386.933 406.798 385.899 406.333 384.301C405.961 383.021 405.57 380.467 404.757 379.468C404.057 378.607 403.006 375.26 402.941 374.162C402.757 371.084 398.984 368.458 398.613 365.179C398.412 363.4 396.69 362.081 396.69 360.215C396.69 359.504 395.537 356.613 395.007 356.196C393.917 355.339 393.805 353.243 393.805 351.941C393.805 349.839 390.44 350.643 389.932 348.894C389.818 348.503 387.52 346.443 386.966 345.899C385.874 344.826 385.191 343.953 384.188 342.721C380.473 338.155 376.96 333.654 373.022 329.351C371.053 327.2 368.401 325.28 366.291 323.205C365.011 321.947 364.448 321.179 362.818 320.263C361.762 319.67 359.819 317.969 359.185 317.19C358.274 316.07 356.623 315.363 355.338 314.695C354.517 314.267 351.977 313.058 351.492 312.462C349.851 310.445 346.835 309.328 344.867 307.393C342.847 305.406 339.537 304.73 337.441 302.875C334.769 300.511 330.957 299.175 327.557 298.147C324.84 297.325 322.011 297.134 319.276 296.387C316.987 295.762 314.202 296.245 312.064 295.31C310.656 294.695 307.102 294.732 305.599 294.732C303.643 294.732 301.621 294.259 299.802 294.259C298.157 294.259 296.627 292.841 294.754 292.841C292.869 292.841 291.302 291.895 289.224 291.895C285.069 291.895 280.898 291.575 276.856 291.423C272.735 291.267 268.578 291.661 264.461 291.423C260.944 291.219 257.443 290.004 253.643 290.004C249.81 290.004 245.61 289.531 241.622 289.531C239.582 289.531 237.795 290.477 235.611 290.477C233.562 290.477 231.472 290.834 229.361 290.95C225.771 291.146 222.029 291.423 218.301 291.423C214.255 291.423 210.118 292.368 206.067 292.368C198.342 292.368 191.616 296.623 184.162 296.623C180.079 296.623 176.218 298.515 172.142 298.515C168.535 298.515 164.979 299.48 161.777 300.379C160.45 300.752 158.059 300.879 156.755 300.879C154.816 300.879 153.094 301.351 151.226 301.351C149.326 301.351 147.964 302.297 146.177 302.297C144.268 302.297 142.466 302.819 140.647 303.216C134.334 304.596 127.905 306.079 121.174 306.079C117.58 306.079 113.838 306.552 110.114 306.552C106.5 306.552 103.184 305.134 99.7766 305.134C95.9064 305.134 92.4263 303.884 88.6908 303.216C86.6562 302.853 84.7153 301.461 82.7071 301.351C80.8374 301.249 79.3514 299.572 77.4179 299.46C76.5553 299.41 74.6264 297.566 74.0521 296.86C73.0149 295.585 71.6728 295.697 70.5794 294.837C69.5826 294.053 67.2409 294.162 66.3588 293.077C65.5089 292.033 63.7697 291.195 62.8861 290.109C61.3359 288.204 59.6235 286.03 57.597 284.436C55.3207 282.645 51.3968 282.134 49.5297 279.839C45.6126 275.024 41.5949 270.592 36.9213 265.997C34.7562 263.868 31.6751 260.393 31.2581 256.908C30.9754 254.545 28.0762 249.394 26.2094 247.925C25.1575 247.098 24.3288 243.952 23.6717 242.724C22.657 240.829 21.6048 238.425 21.134 236.342C20.3234 232.755 18.16 229.565 17.3407 225.94C16.9683 224.292 17.314 222.194 17.314 220.503C17.314 218.596 16.8332 216.904 16.8332 215.066C16.8332 213.255 15.8715 212.037 15.8715 210.469C15.8715 208.181 15.7854 205.874 15.8715 203.587C15.914 202.461 16.5683 201.463 16.8065 200.409C17.1806 198.754 17.9719 201.336 18.249 200.383C18.7179 198.769 19.2373 197.109 19.2373 195.445C19.2373 194.157 20.6517 191.883 21.1607 190.507C21.8691 188.591 23.084 186.972 23.084 184.807C23.084 181.185 25.0073 177.091 25.0073 173.46C25.0073 169.834 27.3258 166.037 28.9608 162.822C30.4102 159.971 33.3487 157.847 34.9979 154.784C36.4411 152.104 39.5591 149.974 40.4206 147.009C41.2383 144.195 43.4497 141.786 44.2673 138.972C45.104 136.092 47.5678 132.842 49.5297 130.672C54.4242 125.257 58.8771 119.696 62.5122 113.441C63.1109 112.41 64.08 110.808 65.0232 109.974C65.9338 109.168 67.6798 108.278 68.2821 107.242C70.235 103.881 69.7246 110.621 69.7246 111.865C69.7246 113.348 70.2775 116.399 69.3507 117.538C68.619 118.438 68.5797 121.672 68.3088 122.87C67.9823 124.315 67.8013 126.451 67.8013 127.835C67.8013 131.375 66.9873 135.301 66.8396 139.077C66.6819 143.108 66.3588 147.314 66.3588 151.475C66.3588 153.302 65.9809 155.594 66.3855 157.385C66.6669 158.63 66.5878 159.934 66.8664 161.167C67.1074 162.234 67.8013 162.84 67.8013 164.004C67.8013 165.096 68.3963 168.818 69.1369 169.546C69.766 170.165 70.6863 173.054 70.6863 173.932C70.6863 175.441 72.0367 176.884 72.1288 178.424C72.1812 179.3 73.094 181.856 73.6781 182.574C74.5941 183.7 74.3391 185.507 75.2809 186.698C75.9798 187.582 77.767 189.68 77.8988 190.717C78.189 193 81.3003 195.843 82.7071 197.572C83.2444 198.233 85.5261 199.654 85.5921 200.173C85.7573 201.473 88.1125 202.109 88.4503 203.272C88.7314 204.24 90.057 206.192 90.7744 206.897C91.9345 208.038 92.7039 209.55 94.0066 210.574C95.135 211.462 95.9067 212.763 97.132 213.516C98.4058 214.299 100.517 215.798 101.459 216.957C102.634 218.401 107.524 220.861 109.634 220.976C110.511 221.024 113.932 222.476 114.442 223.103C115.321 224.183 117.332 224.289 118.395 225.126C119.523 226.013 121.408 226.832 122.856 227.148C124.494 227.506 126.091 229.01 127.692 229.46C131.415 230.506 134.969 231.775 138.697 232.822C142.499 233.89 147.059 235.863 151.252 236.105C154.825 236.312 158.462 237.997 162.044 237.997C165.862 237.997 170.583 238.814 174.065 240.255C175.848 240.994 179.108 241.779 181.037 241.779C182.919 241.779 184.919 242.724 186.941 242.724C189.777 242.724 192.545 244.143 195.435 244.143C197.473 244.143 199.235 244.616 201.232 244.616C205.294 244.616 208.824 245.561 212.772 245.561C216.584 245.561 220.14 246.034 224.071 246.034C232.57 246.034 240.801 246.507 249.315 246.507C252.83 246.507 256.949 245.916 260.401 246.533C265.025 247.36 269.808 247.925 274.559 247.925C278.636 247.925 282.611 248.398 286.58 248.398C291.092 248.398 295.407 249.344 299.829 249.344C310.019 249.344 320.226 249.816 330.335 249.816C337.901 249.816 345.497 250.762 353.175 250.762C356.344 250.762 360.008 252.18 363.272 252.18C365.123 252.18 366.494 252.548 368.321 252.653C369.787 252.738 371.309 254.072 372.889 254.072C375.821 254.072 379.025 256.436 382.025 256.436C383.483 256.436 385.076 257.854 386.592 257.854C388.16 257.854 387.068 258.327 386.112 258.327C384.745 258.327 386.308 258.725 387.073 259.167C389.586 260.621 392.104 262.586 394.767 263.895C396.32 264.659 397.618 265.614 399.334 266.364C400.961 267.075 401.726 268.398 403.154 269.201C404.494 269.954 406.46 270.624 407.642 271.67C408.626 272.54 409.489 274.163 410.394 274.875C412.583 276.597 413.462 279.81 415.549 281.862C416.318 282.618 417.52 285.452 417.82 286.484C418.397 288.47 418.272 289.11 419.877 290.372C420.288 290.696 421.862 291.276 422.414 291.396C423.282 291.586 423.151 292.286 423.857 292.841C424.386 293.257 424.061 294.594 424.097 295.205C424.174 296.481 424.2 296.151 422.281 296.151C422.218 296.151 422.152 296.15 422.084 296.148C422.29 296.466 422.544 296.777 422.762 296.991C423.382 297.602 422.965 298.423 423.51 299.092C424.346 300.12 424.056 301.792 425.299 302.77C427.759 304.705 426.982 309.348 426.982 312.226V317.663C426.982 318.525 426.931 319.403 426.982 320.263C427.022 320.926 427.86 321.494 427.944 322.154C428.098 323.369 429.494 324.533 429.841 325.727C430.3 327.307 430.348 329.729 430.348 331.374C430.348 332.316 431.131 334.818 431.684 335.498C432.167 336.092 431.372 337.238 432.031 337.757C432.956 338.484 433.428 339.254 433.741 340.331C434.719 343.699 435.156 346.482 435.156 350.286C435.156 352.254 433.908 353.815 433.714 355.723C433.61 356.74 433.124 357.727 432.885 358.726C432.805 359.562 432.752 360.37 432.752 361.134V359.742C432.752 359.401 432.805 359.063 432.885 358.726C433.248 354.922 434.162 350.544 433.126 347.108C433.08 346.954 433.029 346.792 432.976 346.625C433.101 348.481 433.233 350.38 433.233 352.177C433.233 355.833 431.791 359.375 431.791 362.815C431.791 364.357 430.829 365.587 430.829 367.307C430.829 368.511 430.743 371.633 430.241 372.744C429.533 374.311 429.742 376.487 429.36 378.181C428.872 380.338 428.98 382.714 428.184 384.748C427.671 386.059 427.463 388.863 427.463 390.237C427.463 391.992 426.501 393.983 426.501 395.674V401.112C426.501 402.653 426.567 405.759 425.647 406.89C424.703 408.05 424.878 411.251 424.551 412.695C424.114 414.63 423.356 416.653 423.136 418.605C422.713 422.346 421.186 425.434 420.224 428.744C419.762 430.333 417.622 435.047 415.656 435.599C414 436.065 414 430.026 414 428.539V428.534C414 426.613 414.755 427.965 415.353 429.215Z" fill="#66C7FD"/>
<path d="M65.2394 102.496C65.292 102.215 65.4416 101.875 65.6627 101.5C66.8511 99.4874 70.1029 96.4734 71.4287 96.0948C72.3239 95.8392 73.4273 93.9895 74.222 93.354C75.2027 92.5699 76.298 91.9706 77.1178 90.9463C77.9518 89.9043 78.3582 88.7844 79.4242 87.7188C80.266 86.8775 81.893 86.3537 82.9864 85.7465C85.6862 84.2473 87.822 83.3917 90.8281 82.724C94.3325 81.9456 97.5033 81.8275 101.207 81.8275C103.966 81.8275 107.823 82.1204 110.202 83.4412C111.878 84.372 117.224 87.0318 117.352 89.2045C117.439 90.681 118.843 91.7688 119.223 93.0979L119.24 93.1593C119.518 94.1331 120.339 97.0054 120.94 97.6061C121.696 98.3618 122.824 100.127 122.887 101.192C122.964 102.498 124.842 104.106 125.168 105.572C125.278 106.067 126.515 108.796 126.808 109.03C127.774 109.803 127.765 112.127 128.525 113.077C129.437 114.216 129.75 115.628 130.37 116.868C131.092 118.311 132.574 119.562 132.574 121.248C132.574 122.755 133.858 123.937 133.958 125.628C134.038 126.995 135.504 128.551 135.829 130.009C136.488 132.973 139.313 135.763 139.493 138.999C139.652 141.853 141.356 145.525 142.363 148.323C142.804 149.545 143.668 151.937 144.465 152.934C145.602 154.355 145.272 156.957 146.182 158.594C147.84 161.577 147.747 165.283 149.411 168.277C150.355 169.976 151.279 170.472 152.64 171.53C153.97 172.564 154.64 173.298 155.741 174.399C156.868 175.525 156.517 176.824 157.124 178.19C157.669 179.415 158.955 180.458 159.303 181.673C159.59 182.68 160.821 183.528 161.199 184.849C161.403 185.562 162.649 187.641 163.121 188.23C165.065 190.659 166.163 193.293 168.451 195.351C170.016 196.759 172.143 198.695 173.628 200.551C174.269 201.352 175.552 202.949 176.396 203.446C177.57 204.136 179.202 204.98 180.086 206.084C180.456 206.546 181.381 206.52 181.829 206.878C182.436 207.363 182.459 207.929 183.084 208.415C184.217 209.295 185.691 210.328 186.646 211.284C188.69 213.326 191.211 214.627 193.361 216.56C195.206 218.22 197.898 219.518 200.613 220.121C203.167 220.688 205.368 222.412 207.763 223.476C210.466 224.677 213.328 226.377 216.296 227.037C219.27 227.697 222.125 228.101 225.035 228.932C230.756 230.566 236.798 232.789 242.359 235.259C248.226 237.865 255.035 237.763 261.066 239.485C262.118 239.786 264.703 239.303 265.423 240.202C265.759 240.622 269.85 240.894 270.497 240.894H267.268H261.963H240.975C234.096 240.894 227.082 241.298 220.217 240.894C217.132 240.713 214.095 239.972 210.761 239.972H199.69C196.19 239.972 192.679 239.698 189.312 239.511C185.86 239.319 182.734 238.128 179.394 238.128C175.962 238.128 172.483 237.206 169.015 237.206C165.91 237.206 161.19 236.394 158.406 235.003C155.852 233.727 152.605 232.715 149.872 232.108C146.95 231.459 144.239 229.368 141.108 229.368C138.127 229.368 135.156 226.309 132.113 226.14C130.815 226.068 129.487 225.094 128.217 224.731C127.104 224.413 125.302 222.973 124.271 222.913C121.764 222.765 117.918 220.945 115.712 219.685C113.366 218.345 109.38 217.916 107.562 216.099C106.909 215.446 104.864 214.718 103.975 214.614C102.45 214.434 101.385 213.182 100.028 212.795C98.8233 212.451 95.5384 211.101 94.8515 210.003C94.4969 209.436 91.9494 207.853 91.315 207.672C89.5803 207.177 86.5395 204.087 85.6259 202.626C84.1532 200.271 81.7292 197.706 79.6293 195.607C77.9684 193.947 75.5678 190.966 74.8883 188.589C74.8324 188.393 73.8841 187.425 73.6326 186.95C73.3259 186.371 72.6879 185.748 72.6075 185.105C72.4909 184.173 71.4761 181.595 70.9931 180.725C70.3382 179.547 69.7598 178.255 69.4042 177.011C69.2061 176.318 67.9681 173.356 67.431 172.759C65.6529 170.785 65.3967 165.928 64.7914 163.205C63.2773 156.395 64.2579 149.272 63.8432 142.227C63.6538 139.007 62.9207 135.746 62.9207 132.314C62.9207 128.592 64.9012 126.057 65.6627 122.632C67.0593 116.35 63.1453 108.39 65.2394 102.496Z" fill="#B3B3B3" fill-opacity="0.5"/>
<path d="M48.1558 372.479C48.6511 372.556 49.1325 372.657 49.5501 372.772C50.6816 373.084 50.8624 374.444 52.0923 374.514C52.9035 374.56 53.7574 375.397 54.609 375.397C55.1254 375.397 57.1057 375.646 57.4817 375.936C59.0284 377.13 61.6084 377.054 63.5321 377.163C65.5961 377.28 67.5892 378.488 69.7096 378.488C74.2044 378.488 79.1328 380.438 83.6662 380.695C85.7182 380.812 87.7905 381.504 89.7166 381.579C91.7545 381.657 94.3544 381.907 96.2754 382.437C97.8323 382.866 101.191 382.903 102.656 382.903H109.52H116.384C118.932 382.903 120.974 381.579 123.477 381.579C125.607 381.579 127.719 380.695 129.883 380.695C130.856 380.695 135.731 379.823 136.289 379.15C136.586 378.792 138.867 378.413 139.493 378.144C140.16 377.858 142.213 377.605 142.924 377.605C145.277 377.605 147.309 376.094 149.56 375.838C151.527 375.615 153.002 373.422 155.051 373.189C155.837 373.1 156.641 372.087 157.567 371.889C158.54 371.68 159.899 371.213 160.643 370.638C162.53 369.182 166.182 369.986 168.219 368.675C169.822 367.644 173.471 367.86 174.727 366.345C174.78 366.281 176.825 365.264 177.015 365.241C177.806 365.146 178.949 364.258 179.532 363.696C180.877 362.398 183.36 361.59 185.048 360.727C187.156 359.651 189.525 359.434 191.658 358.52C192.712 358.068 194.158 357.293 195.319 357.293C195.83 357.293 198.695 356.974 198.98 356.631C200.08 355.303 204.834 355.248 206.555 354.644C209.301 353.68 213.119 352.635 216.012 352.436C222.424 351.994 228.927 349.787 235.358 349.787C237.562 349.787 239.941 348.02 242.222 348.02C244.211 348.02 246.484 347.246 248.4 347.137C253.563 346.844 258.671 345.812 263.958 345.812H295.532C298.036 345.812 300.332 346.254 302.853 346.254C305.256 346.254 308.094 347.579 310.403 347.579C312.764 347.579 315.016 347.645 317.293 348.045C320.073 348.533 323.068 349.684 325.835 349.787C328.137 349.872 330.966 350.989 333.054 351.896C334.779 352.645 336.925 353.34 338.774 353.736C339.824 353.961 340.633 354.584 341.749 354.644C344.942 354.815 348.014 357.103 351.358 357.293C351.705 357.313 353.513 358.203 353.875 358.397L354.032 358.481C354.906 358.951 356.288 359.693 357.103 359.918C359.125 360.475 360.271 361.563 362.137 362.592C363.542 363.366 366.241 366.034 367.831 366.124C372.187 366.371 375.022 369.914 378.559 371.864C380.379 372.868 381.098 374.86 383.135 375.421C384.431 375.778 387.604 376.935 387.991 378.242C388.341 379.424 389.875 383.213 390.914 383.786C391.969 384.368 392.704 387.091 394.016 388.104C394.312 388.333 395.625 389.399 395.999 389.502C396.886 389.747 396.914 390.716 397.473 391.391C398.659 392.822 399.406 394.938 399.837 396.812C400.149 398.166 399.83 401.423 401.007 402.332C402.817 403.729 402.364 405.885 403.168 407.63C404.7 410.957 405.782 415.816 404.871 419.773C404.435 421.665 403.066 423.659 403.066 425.513C403.066 427.722 402.733 429.878 401.795 431.916C400.98 433.686 401.768 436.085 400.32 437.656C399.063 439.021 398.983 442.283 398.465 444.034C397.265 448.085 392.991 450.929 391.067 454.435C390.093 456.21 387.923 457.812 386.491 459.194C384.607 461.012 382.204 462.398 380.288 464.248C378.731 465.75 376.76 467.014 375.153 468.565C373.872 469.801 372.022 471.668 370.374 472.122C369.735 472.298 368.962 473.232 368.289 473.52C367.366 473.916 366.539 474.155 365.772 474.747C364.117 476.025 361.303 475.813 359.696 477.053C358.938 477.638 356.025 479.048 355.019 479.162C353.229 479.366 351.166 480.887 349.324 481.395C345.892 482.341 342.725 484.791 339.206 485.761C337.297 486.288 335.211 486.611 333.309 487.135C332.462 487.368 331.361 487.957 330.41 487.994C329.732 488.02 327.718 488.139 327.207 488.533C326.761 488.878 325.177 489.318 324.589 489.318C324.257 489.318 321.956 489.673 321.716 489.858C320.657 490.675 316.425 491.084 314.979 491.084C310.898 491.084 306.38 492.409 302.396 492.409C301.769 492.409 300.034 492.608 299.65 493.071C299.013 493.84 297.295 492.814 296.549 493.39C295.036 494.558 291.892 493.283 290.041 494.077C289.019 494.515 287.69 493.909 286.634 494.2C285.771 494.438 284.627 495.005 283.634 495.058C281.303 495.183 279.25 495.5 276.999 495.5H263.043C258.61 495.5 254.663 493.734 250.459 493.734C248.266 493.734 246.032 492.851 244.052 492.851H236.502C234.774 492.851 231.302 492.742 229.638 492.066C227.012 490.999 223.177 491.742 220.715 490.422C219.737 489.897 218.537 490.34 217.538 489.858C216.551 489.382 215.235 489.163 214.284 488.901C213.185 488.598 212.424 488.559 211.335 488.092C210.562 487.76 208.819 487.465 208.233 487.012C206.917 485.996 203.553 485.955 201.827 485.442C199.679 484.805 197.138 485.338 195.09 484.24C193.341 483.303 189.7 483.093 188.455 481.591C187.75 480.741 184.773 479.882 183.676 479.579C181.421 478.958 178.739 477.339 176.786 476.292C174.667 475.156 172.302 474.423 170.151 473.324C162.017 469.169 153.36 466.327 144.984 462.285C140.876 460.303 136.251 459.174 132.527 456.3C130.769 454.942 128.024 454.656 126.222 453.111C124.888 451.966 122.156 450.444 120.528 449.995C116.282 448.825 112.189 445.246 108.376 443.298C104.592 441.365 101.951 437.758 98.5634 435.89C96.9906 435.023 95.6859 432.801 93.9874 432.333C92.9458 432.046 90.7639 429.438 90.0725 428.604C87.8336 425.904 84.0963 423.978 82.3951 420.877C80.6169 417.636 77.8062 414.692 75.4295 411.825C73.2777 409.23 71.0294 406.739 68.9215 404.196C68.052 403.147 65.5199 400.456 65.3625 399.241C65.1596 397.675 63.0411 396.589 62.5915 395.071C62.1068 393.434 59.4805 392.732 58.9816 391.047C58.5682 389.651 56.3451 387.991 55.3971 386.436C54.3965 384.794 52.8258 383.063 51.533 381.677C50.592 380.668 48.8347 379.076 48.457 377.801C48.2285 377.029 45.5027 373.189 47.2876 373.189C47.3932 373.189 47.4612 373.19 47.4982 373.191C47.2856 373.181 46.1528 373.102 45.7877 372.649C45.7402 372.59 46.3124 372.4 46.9434 372.337C47.3818 372.294 47.8486 372.312 48.1558 372.479Z" fill="#39C68A"/>
<path d="M245.556 341.679H250.422C249.555 341.679 248.137 340.773 247.235 340.572C246.692 340.452 244.762 340.631 244.437 340.224C244.198 339.927 242.244 339.665 241.862 339.665C240.853 339.665 239.838 339.486 238.94 339.23C238.011 338.965 237.007 338.972 236.042 338.758C234.969 338.519 233.864 338.404 232.797 338.099C231.505 337.73 230.008 337.427 228.655 337.427C227.176 337.427 225.704 336.756 224.178 336.756C223.253 336.756 221.9 336.586 220.933 336.358C218.905 335.882 216.696 336.1 214.715 335.464C212.813 334.852 210.436 334.595 208.447 334.519C207.439 334.48 205.539 334.296 204.592 333.897C204.184 333.726 203.413 334.069 203.074 333.798C202.608 333.425 202.276 333.4 201.682 333.4C200.138 333.4 198.051 332.911 196.583 332.455C194.25 331.732 191.649 331.562 189.32 330.715C187.782 330.156 185.895 330.514 184.445 329.87C183.569 329.481 182.146 329.531 181.199 329.385C180.398 329.262 179.516 329.196 178.712 329.137C175.894 328.928 172.934 328.134 170.119 327.695C167.168 327.234 164.212 326.8 161.252 326.452C160.127 326.319 159.06 325.897 157.907 325.805C156.04 325.656 154.158 325.462 152.335 325.022C150.311 324.534 148.243 324.422 146.279 323.667C144.429 322.956 142.28 322.378 140.334 321.989C138.726 321.668 136.924 321.094 135.298 321.094C133.42 321.094 131.118 320.973 129.279 320.535C127.58 320.131 125.483 320.04 123.732 319.975C121.318 319.886 119.028 318.13 116.668 317.962C115.92 317.908 115.353 317.321 114.554 317.291C113.747 317.26 113.009 316.866 112.241 316.669C110.374 316.189 108.294 316.103 106.546 315.327C105.996 315.083 105.349 315.285 104.755 315.003C104.315 314.795 103.455 314.606 102.964 314.606C101.452 314.606 99.6718 314.192 98.2133 313.76C97.2821 313.485 96.2001 313.642 95.2536 313.437C94.1386 313.196 92.961 312.856 91.8212 312.816C91.1128 312.79 90.4709 312.592 89.7568 312.592C89.0936 312.592 88.6117 312.177 87.966 312.144C86.2573 312.059 84.7152 311.501 83.0413 311.262C81.2952 311.013 78.5822 310.591 77.1093 309.571C76.0243 308.821 74.6105 309.054 73.5277 308.453C72.6233 307.95 70.4626 308.341 69.486 308.341C66.9218 308.341 64.6877 307.533 62.3353 307.011C60.4284 306.587 58.3853 304.761 56.2913 304.761C55.0764 304.761 53.8533 304.537 52.5978 304.537H52.5957C51.5761 304.537 50.1852 304.537 49.2401 304.139C48.4985 303.827 47.1554 303.464 46.33 303.418C45.2997 303.361 44.3455 302.747 43.42 302.747C42.4242 302.747 41.3443 302.523 40.2861 302.523C39.4368 302.523 37.926 302.229 37.1522 302.573C36.1559 303.016 35.0151 302.802 34.0183 303.244C33.0272 303.685 31.8165 303.771 30.8844 304.264C29.5224 304.984 27.7505 307.194 27.7505 308.9C27.7505 309.976 27.079 310.93 27.079 312.033C27.079 313.105 26.4074 314.147 26.4074 315.165C26.4074 317.262 26.1836 319.473 26.1836 321.654C26.1836 322.704 26.4074 323.803 26.4074 324.786C26.4074 326.041 26.9177 327.076 27.0666 328.266C27.2489 329.724 27.7853 331.095 27.9868 332.505C28.1374 333.559 28.2183 335.011 28.6459 335.973C29.1107 337.018 28.9722 338.321 29.5413 339.317C29.7724 339.721 29.8933 340.185 30.0015 340.672C30.1325 341.261 30.5323 341.626 30.6606 342.139C30.9687 343.371 31.5055 344.72 32.1156 345.818C32.3842 346.301 32.8406 346.99 33.2348 347.384C33.6194 347.768 33.7806 348.516 34.1427 348.826C35.1358 349.677 35.1138 351.033 35.6972 352.083C36.0746 352.762 36.0511 353.609 36.3687 354.308C36.5835 354.78 37.0358 355.418 37.1398 355.886C37.4062 357.085 38.3579 357.896 38.8933 358.907C39.2922 359.66 40.0158 360.969 40.7338 361.418C41.8341 362.105 42.4953 363.849 43.6438 364.55C44.5728 365.118 45.4504 365.817 46.2803 366.564C46.9107 367.131 48.129 368.2 49.0162 368.304C49.4482 368.355 51.0923 368.98 51.4288 369.249C51.6947 369.461 52.5045 369.618 52.8714 369.647C53.6671 369.708 54.4089 370.286 55.2343 370.318C56.6421 370.372 58.0526 370.938 59.4874 370.989C61.8369 371.073 64.2278 372.331 66.4765 372.331C67.5341 372.331 68.6506 373.003 69.7099 373.003H73.4158C75.9073 373.003 78.1497 373.371 80.4671 373.885C82.6578 374.372 84.6978 375.016 86.9587 375.016C89.2151 375.016 91.4649 375.464 93.7861 375.464H104.257C106.704 375.464 109.281 375.15 111.694 375.016C112.738 374.958 113.803 374.569 114.828 374.569C115.884 374.569 116.754 373.952 117.738 373.898C118.502 373.855 119.824 373.51 120.536 373.115C121.512 372.573 122.91 372.766 123.894 372.22C124.75 371.744 126.279 372.118 127.028 371.536C127.545 371.134 128.201 371.114 128.819 370.977C129.363 370.856 129.855 370.318 130.385 370.318C131.083 370.318 132.225 369.433 132.848 369.087C133.444 368.756 135.298 368.403 135.646 367.968C135.922 367.624 136.683 367.513 137.089 367.397C137.666 367.232 138.252 366.641 138.879 366.527C140.017 366.32 140.918 365.629 142.026 365.383C143.166 365.13 144.331 364.669 145.446 364.326C146.835 363.899 148.199 363.46 149.574 362.984C152.02 362.138 154.754 361.804 157.135 360.747C158.943 359.944 160.898 359.548 162.732 358.733C163.831 358.244 165.266 358.176 166.139 357.39C166.439 357.12 167.289 357.321 167.607 357.067C167.908 356.826 168.645 356.536 169.049 356.396C171.203 355.651 173.381 354.938 175.603 354.444C177.738 353.97 180.233 353.753 182.207 352.766C183.362 352.189 185.303 351.93 186.572 351.735C187.414 351.605 188.396 351.31 189.158 350.976C189.859 350.67 190.849 350.876 191.496 350.516C192.022 350.225 192.899 350.304 193.511 350.069C193.994 349.883 195.013 349.733 195.526 349.733C196.535 349.733 197.439 349.296 198.436 349.075C199.484 348.842 200.688 349.106 201.682 348.664C202.693 348.215 204.25 348.567 205.263 348.117C206.674 347.491 208.617 347.657 210.138 347.222C211.28 346.896 212.69 347.031 213.769 346.551C215.571 345.751 217.53 345.789 219.415 345.209C221.897 344.445 224.829 344.572 227.2 343.518C228.103 343.117 229.439 343.593 230.334 343.195C230.728 343.02 231.557 343.207 231.851 342.971C232.102 342.771 232.683 342.574 233.02 342.574C233.866 342.574 235.392 342.639 236.154 342.3C237.104 341.878 238.331 342.278 239.288 341.853C240.895 341.139 243.783 341.679 245.556 341.679Z" fill="#9A9A9A" fill-opacity="0.5"/>
</svg>
