<svg width="20" height="20" viewBox="0 0 20 20" fill="none" xmlns="http://www.w3.org/2000/svg">
<path fill-rule="evenodd" clip-rule="evenodd" d="M16.7228 3.70699C14.8174 6.5392 13.7595 8.12404 13.6207 10.4282L13.1037 13.0133C11.7084 13.9081 11.2613 14.5382 11.0357 15.5983C10.9622 16.9581 10.9472 17.7062 11.5527 18.7004C11.9548 17.6298 12.3494 17.1392 13.6207 16.6324C14.4002 15.5082 14.7528 14.8949 14.1377 14.0473C14.1756 13.7978 14.487 13.3754 15.1718 12.4963L17.2398 9.91119C18.0808 8.28823 18.536 6.98768 19.3079 3.70702C19.3677 3.48753 19.4263 3.27639 19.4825 3.07393C19.9135 1.52063 20.2029 0.477557 19.8249 0.0878898C19.4011 -0.312704 18.6624 0.615749 16.7228 3.70699ZM13.8288 11.1671C13.8118 11.2433 13.795 11.3184 13.795 11.3911C13.795 11.4403 13.7769 11.4816 13.7586 11.5231C13.7463 11.5512 13.7339 11.5793 13.7271 11.6101C13.7248 11.6207 13.7222 11.6368 13.7192 11.6556C13.7093 11.7171 13.6948 11.8078 13.6682 11.8291C13.6405 11.8513 13.6317 11.8985 13.6234 11.9431C13.6185 11.9694 13.6138 11.9948 13.6054 12.0136C13.5739 12.0846 13.5414 12.1766 13.5414 12.2556C13.5414 12.358 13.515 12.6114 13.4543 12.6872C13.4327 12.7142 13.4261 12.8638 13.4261 12.9011C13.4261 12.9149 13.4248 12.9324 13.4234 12.9518C13.4188 13.0138 13.4128 13.094 13.4441 13.1253C13.4812 13.1624 13.5274 13.191 13.5736 13.2196C13.6297 13.2544 13.6858 13.2891 13.7258 13.3391C13.752 13.3719 13.7913 13.3761 13.8288 13.3801C13.8576 13.3831 13.8854 13.3861 13.9051 13.4019C13.9748 13.4576 14.047 13.4112 14.0896 13.3686C14.1772 13.2809 14.2754 13.173 14.3367 13.0625C14.3867 12.9726 14.4523 12.8912 14.5224 12.8043C14.5334 12.7906 14.5446 12.7768 14.5557 12.7628C14.6305 12.6693 14.6844 12.5662 14.7392 12.4611C14.7489 12.4426 14.7585 12.424 14.7683 12.4055C14.8045 12.3372 14.8597 12.2778 14.9149 12.2184C14.9622 12.1674 15.0096 12.1164 15.045 12.0597C15.0748 12.012 15.1461 11.9332 15.1897 11.8983C15.2194 11.8745 15.236 11.8365 15.252 11.7999C15.2668 11.7658 15.2811 11.733 15.305 11.7139C15.4233 11.6192 15.001 11.2995 14.8141 11.158C14.7753 11.1286 14.7466 11.107 14.735 11.0966C14.7106 11.0746 14.5762 11.0453 14.5442 11.0453C14.5058 11.0453 14.4662 11.0277 14.4269 11.0103C14.3883 10.9932 14.3501 10.9762 14.3137 10.9762C14.2424 10.9762 14.1654 10.9706 14.0869 10.965C14.0127 10.9597 13.9371 10.9542 13.8637 10.9533C13.8607 11.0248 13.8446 11.0964 13.8288 11.1671Z"/>
<path d="M9.99559 17.865C10.526 18.069 10.918 18.5491 11.4901 18.6063C11.5875 18.801 12.3672 18.7822 11.6754 18.9799C11.3258 19.0798 10.9023 19.0367 10.5217 19.0367C9.691 19.0367 8.82042 18.919 8.04374 18.6601C7.80001 18.5788 7.64459 18.517 7.4549 18.3373C7.30787 18.198 7.03845 18.1301 6.92882 17.9606C6.86052 17.8551 6.57546 17.6268 6.47449 17.5541C6.27382 17.4096 6.1756 17.2535 6.00222 17.0699C5.87757 16.9379 5.66666 16.7002 5.62859 16.5289C5.58308 16.3241 5.45808 15.8967 5.32669 15.7278C5.11029 15.4496 4.97997 14.8934 4.97997 14.5442C4.97997 13.4873 4.92616 12.4099 4.92616 11.3429C4.92616 10.4692 4.57581 9.5346 3.87701 8.97556C3.51797 8.68833 3.11484 8.44414 2.76209 8.12667C2.45051 7.84624 2.28912 7.49228 2.00885 7.21202C1.71128 6.91444 1.47925 6.52478 1.13306 6.25552C0.85828 6.0418 0.690606 5.39733 0.618944 5.07485C0.537324 4.70756 0.320393 4.3874 0.299116 4.02569C0.272414 3.57175 0.0839048 3.17709 0.0839048 2.70752V1.49696C0.0839048 1.12071 0.0534048 0.625184 0.245313 0.301339C0.277896 0.246355 0.352919 0.00627117 0.352919 0.0442806C0.352919 0.132638 0.331629 0.25223 0.355908 0.337207C0.397821 0.483902 0.460525 0.714883 0.460525 0.878225C0.460525 1.07654 0.675736 1.23422 0.675736 1.41625C0.675736 1.49438 1.00105 1.92213 1.08225 1.98118C1.31885 2.15326 1.54046 2.46929 1.75179 2.68062C2.04686 2.97569 2.5134 3.31868 2.89361 3.48766C3.51815 3.76524 4.10115 4.16539 4.74084 4.40231C5.33878 4.62377 6.01989 4.96326 6.54025 5.32892C7.29123 5.85663 8.27843 6.2165 8.74318 7.06854C9.04739 7.62628 9.4002 8.19489 9.66081 8.78127C9.866 9.24293 9.71462 10.1463 9.71462 10.6674C9.71462 11.0071 9.70619 11.3028 9.59505 11.6239C9.49986 11.8989 9.44021 12.2369 9.28419 12.4847C8.48803 13.7492 8.65375 15.1237 8.96138 16.508C9.02538 16.796 9.22303 17.3647 9.4994 17.5183C9.67586 17.6163 9.81216 17.7944 9.99559 17.865Z" fill="url(#paint0_linear_6_137)"/>
<defs>
<linearGradient id="paint0_linear_6_137" x1="6.02051" y1="0.0402222" x2="6.02051" y2="19.0459" gradientUnits="userSpaceOnUse">
<stop stop-color="#ECAD1D" stop-opacity="0"/>
<stop offset="0.29184" stop-color="#66C7FD"/>
<stop offset="0.585199" stop-color="#39C68A"/>
<stop offset="0.909887" stop-color="#ECAD1D"/>
</linearGradient>
</defs>
</svg>
