<svg width="513" height="512" viewBox="0 0 513 512" fill="none" xmlns="http://www.w3.org/2000/svg">
<g fill="#ECAD1D">
<path class="icon-accent" d="M166.317 105.476C160.317 68.4762 161.816 60.4762 178.817 33.4763C195.817 6.47626 335.816 5.47623 435.816 105.476C494.817 169.476 498.817 248.476 488.316 282.476C485.317 211.976 444.817 168.476 387.317 158.976C329.817 149.476 172.316 142.476 166.317 105.476Z"/>
</g>
<g fill="#66C7FD">
<path class="icon-accent-2" d="M401.316 269.476C444.816 314.976 429.316 367.976 414.316 433.476C400.48 299.23 290.816 272.476 192.816 294.976C94.8165 317.476 70.3746 305.976 39.8165 269.476C9.25839 232.976 9.84706 170.971 68.8165 107.976C55.8165 169.476 59.3165 211.976 153.816 239.476C248.316 266.976 357.816 223.976 401.316 269.476Z"/>
</g>
<g fill="#39C68A">
<path class="icon-accent-3" d="M193.817 358.476C142.817 380.473 106.498 391.598 45.3165 373.476C78.3165 416.476 80.3165 433.976 164.317 470.976C248.317 507.976 331.317 494.976 370.817 470.976C410.317 446.976 414.817 403.976 377.317 373.476C339.817 342.976 244.817 336.48 193.817 358.476Z"/>
</g>
<g fill="currentColor">
<path d="M479.817 292.476C479.817 352.476 455.079 394.894 422.317 430.976C454.33 294.619 428.817 208.476 320.817 167.476C354.176 160.688 382.817 160.476 422.317 185.476C461.817 210.476 479.817 232.476 479.817 292.476Z" fill-opacity="0.25"/>
<path d="M114.316 218.476C165.012 239.601 199.182 244.387 265.816 240.476C176.816 228.476 148.266 187.07 128.316 115.476C116.377 78.0278 88.3165 73.9762 75.8165 90.9762C63.3165 107.976 63.6207 197.351 114.316 218.476Z" fill-opacity="0.25"/>
<path d="M27.3165 306.976C26.0734 293.959 197.316 340.976 248.316 340.976C199.317 344.976 188.816 347.976 160.316 358.476C131.817 368.976 74.4317 384.32 51.8165 368.976C29.2013 353.632 21.8165 328.476 27.3165 306.976Z" fill-opacity="0.25"/>
</g>
</svg>
